<svg width="24" height="24" viewBox="0 0 24 24" fill="none" xmlns="http://www.w3.org/2000/svg">
<path d="M15.903 5.60043C15.7367 5.27961 15.4597 5.02998 15.1234 4.89787C12.8818 4.02825 10.6796 3.19856 8.5286 2.49037C8.31094 2.41809 8.07575 2.41809 7.8581 2.49037C5.70935 3.19687 3.50547 4.02487 1.26447 4.89337C0.967098 5.01012 0.714958 5.21909 0.545036 5.48962C0.557973 5.48962 0.0843479 6.96843 0.0039104 10.2321C-0.0439021 13.4946 0.362785 14.4733 0.349285 14.4744C0.569223 15.1916 0.98041 15.9212 1.57047 16.6637C2.23029 17.4922 3.12129 18.3478 4.19735 19.1893C5.97935 20.5877 7.6466 21.423 7.7186 21.45C7.86704 21.5242 8.03074 21.5629 8.19672 21.5629C8.3627 21.5629 8.5264 21.5242 8.67485 21.45C8.74516 21.4202 10.4147 20.5821 12.1955 19.1837C13.2716 18.3399 14.1643 17.4861 14.823 16.6575C15.4552 15.8632 15.8822 15.0825 16.0892 14.3175C16.0807 14.3175 16.3794 13.1177 16.3383 10.3716C16.3084 8.77277 16.1629 7.17824 15.903 5.60043Z" fill="url(#paint0_linear_736_806)"/>
<path d="M12.8748 10.1438C11.293 11.7722 9.66854 13.4772 8.07498 15.1602C7.94558 15.2975 7.78945 15.4069 7.6162 15.4817C7.44295 15.5565 7.25624 15.595 7.06754 15.595H7.06136C6.87266 15.593 6.68627 15.5533 6.51309 15.4784C6.33991 15.4034 6.18342 15.2947 6.05279 15.1585C5.20004 14.2754 4.34111 13.3945 3.48779 12.5305C3.35844 12.4012 3.25646 12.2472 3.18796 12.0776C3.11946 11.908 3.08583 11.7264 3.08908 11.5435C3.09234 11.3606 3.13241 11.1803 3.20691 11.0133C3.2814 10.8462 3.38879 10.6959 3.52267 10.5713C4.08517 10.0319 4.97617 10.0296 5.51561 10.5831C6.02223 11.1021 6.53111 11.6249 7.04223 12.1514C8.30842 10.8233 9.57911 9.48512 10.8166 8.18518C11.342 7.63168 12.2229 7.63843 12.7927 8.18518C13.3625 8.73193 13.4064 9.59762 12.8748 10.1438Z" fill="url(#paint1_linear_736_806)"/>
<defs>
<linearGradient id="paint0_linear_736_806" x1="14.5923" y1="16.9905" x2="1.79154" y2="4.18968" gradientUnits="userSpaceOnUse">
<stop stop-color="#012BB6"/>
<stop offset="0.52" stop-color="#014FB6"/>
<stop offset="1" stop-color="#B4E1F4"/>
</linearGradient>
<linearGradient id="paint1_linear_736_806" x1="10.4943" y1="12.742" x2="5.92286" y2="8.17056" gradientUnits="userSpaceOnUse">
<stop stop-color="#B4CEF4"/>
<stop offset="0.57" stop-color="white"/>
<stop offset="1" stop-color="white"/>
</linearGradient>
</defs>
</svg>
