<svg width="68" height="68" viewBox="0 0 68 68" fill="none" xmlns="http://www.w3.org/2000/svg">
<g filter="url(#filter0_dd_736_783)">
<path d="M12 30C12 17.8497 21.8497 8 34 8C46.1503 8 56 17.8497 56 30C56 42.1503 46.1503 52 34 52C21.8497 52 12 42.1503 12 30Z" fill="white"/>
<path d="M42 30C42 34.4183 38.4183 38 34 38M42 30C42 25.5817 38.4183 22 34 22M42 30H44M34 38C29.5817 38 26 34.4183 26 30M34 38V40M26 30C26 25.5817 29.5817 22 34 22M26 30H24M34 22V20M37 30C37 31.6569 35.6569 33 34 33C32.3431 33 31 31.6569 31 30C31 28.3431 32.3431 27 34 27C35.6569 27 37 28.3431 37 30Z" stroke="#111111" stroke-width="2" stroke-linecap="round" stroke-linejoin="round"/>
</g>
<defs>
<filter id="filter0_dd_736_783" x="0" y="0" width="68" height="68" filterUnits="userSpaceOnUse" color-interpolation-filters="sRGB">
<feFlood flood-opacity="0" result="BackgroundImageFix"/>
<feColorMatrix in="SourceAlpha" type="matrix" values="0 0 0 0 0 0 0 0 0 0 0 0 0 0 0 0 0 0 127 0" result="hardAlpha"/>
<feOffset dy="4"/>
<feGaussianBlur stdDeviation="6"/>
<feComposite in2="hardAlpha" operator="out"/>
<feColorMatrix type="matrix" values="0 0 0 0 0 0 0 0 0 0 0 0 0 0 0 0 0 0 0.16 0"/>
<feBlend mode="normal" in2="BackgroundImageFix" result="effect1_dropShadow_736_783"/>
<feColorMatrix in="SourceAlpha" type="matrix" values="0 0 0 0 0 0 0 0 0 0 0 0 0 0 0 0 0 0 127 0" result="hardAlpha"/>
<feOffset/>
<feGaussianBlur stdDeviation="1"/>
<feComposite in2="hardAlpha" operator="out"/>
<feColorMatrix type="matrix" values="0 0 0 0 0 0 0 0 0 0 0 0 0 0 0 0 0 0 0.08 0"/>
<feBlend mode="normal" in2="effect1_dropShadow_736_783" result="effect2_dropShadow_736_783"/>
<feBlend mode="normal" in="SourceGraphic" in2="effect2_dropShadow_736_783" result="shape"/>
</filter>
</defs>
</svg>
