<svg width="16" height="16" viewBox="0 0 16 16" fill="none" xmlns="http://www.w3.org/2000/svg">
<g clip-path="url(#clip0_736_114)">
<path d="M15.0895 12.0386C15.0895 15.685 11.9365 16 8.04703 16C4.15757 16 1.00455 15.685 1.00455 12.0386C1.00455 8.39224 0.57563 2.79535 8.04703 2.79535C15.5184 2.79535 15.0895 8.39224 15.0895 12.0386Z" fill="url(#paint0_linear_736_114)"/>
<rect x="6.71533" y="2.20074" width="0.88031" height="2.64093" rx="0.440155" transform="rotate(30 6.71533 2.20074)" fill="#171717" fill-opacity="0.1"/>
<rect width="0.88031" height="2.64093" rx="0.440155" transform="matrix(-0.866025 0.5 0.5 0.866025 8.79834 2.20074)" fill="#171717" fill-opacity="0.1"/>
<path d="M5.83496 2.37899C5.83496 2.2809 5.91549 2.20174 6.01357 2.20293C7.20864 2.21746 7.96002 2.22401 9.17657 2.20385C9.27503 2.20222 9.3562 2.28153 9.3562 2.38001V2.90468C9.3562 3.00204 9.2768 3.0809 9.17944 3.08085C7.97819 3.08021 7.23002 3.09504 6.00936 3.08293C5.91293 3.08198 5.83496 3.00346 5.83496 2.90703V2.37899Z" fill="#554C3E"/>
<path d="M4.51416 1.32047C4.51416 0.591192 5.10535 0 5.83463 0H6.27478C7.24714 0 8.0354 0.788257 8.0354 1.76062V2.64093H5.83463C5.10535 2.64093 4.51416 2.04974 4.51416 1.32047Z" fill="url(#paint1_linear_736_114)"/>
<path d="M6.2749 0C6.72929 3.08254e-05 7.14286 0.172731 7.45501 0.45552C7.53357 0.526695 7.65686 0.526693 7.73542 0.455517C8.04756 0.172726 8.46114 4.39523e-05 8.91553 0H9.35596C10.0851 5.43614e-05 10.6762 0.591133 10.6763 1.32031C10.6763 2.04955 10.0852 2.64057 9.35596 2.64062H5.83447C5.10527 2.64054 4.51416 2.04953 4.51416 1.32031C4.51424 0.591161 5.10532 8.24436e-05 5.83447 0H6.2749Z" fill="url(#paint2_linear_736_114)"/>
<rect x="4.51416" y="10.1235" width="7.04248" height="1.76062" rx="0.88031" fill="#A97D40"/>
</g>
<defs>
<linearGradient id="paint0_linear_736_114" x1="8.04703" y1="2.80365" x2="12.8811" y2="15.5642" gradientUnits="userSpaceOnUse">
<stop stop-color="#EEE2C2"/>
<stop offset="1" stop-color="#EED573"/>
</linearGradient>
<linearGradient id="paint1_linear_736_114" x1="6.27478" y1="0.00166057" x2="7.08526" y2="2.67424" gradientUnits="userSpaceOnUse">
<stop stop-color="#E2F1DE"/>
<stop offset="1" stop-color="#B8DDA2"/>
</linearGradient>
<linearGradient id="paint2_linear_736_114" x1="7.59521" y1="0.00166038" x2="8.08609" y2="2.83463" gradientUnits="userSpaceOnUse">
<stop stop-color="#EEE2C2"/>
<stop offset="1" stop-color="#EED573"/>
</linearGradient>
<clipPath id="clip0_736_114">
<rect width="16" height="16" fill="white"/>
</clipPath>
</defs>
</svg>
