<svg width="24" height="24" viewBox="0 0 24 24" fill="none" xmlns="http://www.w3.org/2000/svg">
<path d="M21.0069 16.7456C21.0069 21.4025 16.98 21.8049 12.0127 21.8049C7.04534 21.8049 3.01851 21.4025 3.01851 16.7456C3.01851 12.0887 2.47072 4.94077 12.0127 4.94077C21.5547 4.94076 21.0069 12.0887 21.0069 16.7456Z" fill="url(#paint0_linear_736_303)"/>
<rect x="10.312" y="4.1813" width="1.12427" height="3.37282" rx="0.562137" transform="rotate(30 10.312 4.1813)" fill="#171717" fill-opacity="0.1"/>
<rect width="1.12427" height="3.37282" rx="0.562137" transform="matrix(-0.866025 0.5 0.5 0.866025 12.9722 4.1813)" fill="#171717" fill-opacity="0.1"/>
<path d="M9.1875 4.40894C9.1875 4.28368 9.29035 4.18257 9.41561 4.1841C10.9419 4.20265 11.9015 4.21101 13.4552 4.18528C13.5809 4.18319 13.6846 4.28448 13.6846 4.41025V5.08032C13.6846 5.20466 13.5832 5.30538 13.4588 5.30532C11.9247 5.3045 10.9692 5.32343 9.41024 5.30798C9.28708 5.30676 9.1875 5.20649 9.1875 5.08332V4.40894Z" fill="#554C3E"/>
<path d="M7.50146 3.05705C7.50146 2.12567 8.2565 1.37064 9.18787 1.37064H9.75001C10.9919 1.37064 11.9986 2.37734 11.9986 3.61918V4.74346H9.18787C8.2565 4.74346 7.50146 3.98842 7.50146 3.05705Z" fill="url(#paint1_linear_736_303)"/>
<path d="M9.75049 1.37064C10.3309 1.37076 10.8585 1.59203 11.2569 1.9535C11.3572 2.04452 11.5148 2.0445 11.6151 1.95348C12.0138 1.59184 12.5419 1.37071 13.1226 1.37064H13.6851C14.6164 1.37068 15.3716 2.12581 15.3716 3.05716C15.3715 3.98846 14.6164 4.74364 13.6851 4.74368H9.18799C8.25665 4.74368 7.50153 3.98849 7.50146 3.05716C7.50146 2.12578 8.25661 1.37064 9.18799 1.37064H9.75049Z" fill="url(#paint2_linear_736_303)"/>
<rect x="7.50146" y="14.2998" width="8.99419" height="2.24855" rx="1.12427" fill="#A97D40"/>
<defs>
<linearGradient id="paint0_linear_736_303" x1="12.0127" y1="4.95137" x2="18.1864" y2="21.2483" gradientUnits="userSpaceOnUse">
<stop stop-color="#EEE2C2"/>
<stop offset="1" stop-color="#EED573"/>
</linearGradient>
<linearGradient id="paint1_linear_736_303" x1="9.75001" y1="1.37276" x2="10.7851" y2="4.786" gradientUnits="userSpaceOnUse">
<stop stop-color="#E2F1DE"/>
<stop offset="1" stop-color="#B8DDA2"/>
</linearGradient>
<linearGradient id="paint2_linear_736_303" x1="11.4364" y1="1.37276" x2="12.0635" y2="4.99124" gradientUnits="userSpaceOnUse">
<stop stop-color="#EEE2C2"/>
<stop offset="1" stop-color="#EED573"/>
</linearGradient>
</defs>
</svg>
