<svg width="124" height="131" viewBox="0 0 124 131" fill="none" xmlns="http://www.w3.org/2000/svg">
<g filter="url(#filter0_dd_840_517)">
<mask id="path-1-outside-1_840_517" maskUnits="userSpaceOnUse" x="29.0049" y="20" width="65" height="71" fill="black">
<rect fill="white" x="29.0049" y="20" width="65" height="71"/>
<path d="M54.9782 25C56.6976 25.0002 58.264 25.6523 59.4459 26.7217C59.7433 26.9908 60.21 26.9907 60.5074 26.7217C61.6895 25.6522 63.2566 25.0001 64.9762 25H66.6432C69.4038 25.0003 71.642 27.2384 71.6422 29.999C71.6422 32.7598 69.4039 34.9987 66.6432 34.999H66.6412V35.8242C89.7752 38.2005 88.3483 57.6349 88.3483 70.5781C88.3483 84.3832 76.4106 85.5762 61.6852 85.5762C46.9597 85.5762 35.0221 84.3832 35.0221 70.5781C35.0221 58.2926 33.7364 40.1588 53.3893 36.3154C53.3401 36.2226 53.3102 36.118 53.3102 36.0059V34.998C50.5496 34.9976 48.3121 32.7597 48.3121 29.999C48.3123 27.2382 50.5504 25.0001 53.3112 25H54.9782Z"/>
</mask>
<path d="M54.9782 25C56.6976 25.0002 58.264 25.6523 59.4459 26.7217C59.7433 26.9908 60.21 26.9907 60.5074 26.7217C61.6895 25.6522 63.2566 25.0001 64.9762 25H66.6432C69.4038 25.0003 71.642 27.2384 71.6422 29.999C71.6422 32.7598 69.4039 34.9987 66.6432 34.999H66.6412V35.8242C89.7752 38.2005 88.3483 57.6349 88.3483 70.5781C88.3483 84.3832 76.4106 85.5762 61.6852 85.5762C46.9597 85.5762 35.0221 84.3832 35.0221 70.5781C35.0221 58.2926 33.7364 40.1588 53.3893 36.3154C53.3401 36.2226 53.3102 36.118 53.3102 36.0059V34.998C50.5496 34.9976 48.3121 32.7597 48.3121 29.999C48.3123 27.2382 50.5504 25.0001 53.3112 25H54.9782Z" fill="url(#paint0_linear_840_517)"/>
<path fill-rule="evenodd" clip-rule="evenodd" d="M54.9782 25L54.9786 20H54.9782V25ZM59.4459 26.7217L62.8004 23.0139L62.8004 23.0139L59.4459 26.7217ZM60.5075 26.7217L63.8612 30.4301L63.8619 30.4294L60.5075 26.7217ZM64.9762 25V20H64.976L64.9762 25ZM66.6432 25L66.6438 20H66.6432V25ZM71.6422 29.999H76.6422V29.9987L71.6422 29.999ZM66.6432 34.999V39.999H66.6438L66.6432 34.999ZM66.6412 34.999V29.999H61.6412V34.999H66.6412ZM66.6412 35.8242H61.6412V40.3369L66.1303 40.798L66.6412 35.8242ZM88.3483 70.5781L83.3483 70.5781V70.5781H88.3483ZM61.6852 85.5762V90.5762V90.5762V85.5762ZM35.0221 70.5781H40.0221V70.5781L35.0221 70.5781ZM53.3893 36.3154L54.3489 41.2225L60.9618 39.9293L57.8077 33.9749L53.3893 36.3154ZM53.3102 34.998H58.3102V29.9989L53.311 29.998L53.3102 34.998ZM48.3121 29.999L43.3121 29.9987V29.999H48.3121ZM53.3112 25V20H53.3109L53.3112 25ZM54.9782 25L54.9777 30C55.4077 30 55.791 30.1576 56.0915 30.4294L59.4459 26.7217L62.8004 23.0139C60.7369 21.1471 57.9875 20.0003 54.9786 20L54.9782 25ZM59.4459 26.7217L56.0914 30.4294C58.294 32.4221 61.6602 32.4206 63.8612 30.4301L60.5075 26.7217L57.1537 23.0133C58.7598 21.5608 61.1927 21.5594 62.8004 23.0139L59.4459 26.7217ZM60.5075 26.7217L63.8619 30.4294C64.162 30.1579 64.5459 30 64.9764 30L64.9762 25L64.976 20C61.9674 20.0001 59.217 21.1466 57.153 23.0139L60.5075 26.7217ZM64.9762 25V30H66.6432V25V20H64.9762V25ZM66.6432 25L66.6426 30L66.6422 29.9994L71.6422 29.999L76.6422 29.9987C76.6418 24.4767 72.1652 20.0006 66.6438 20L66.6432 25ZM71.6422 29.999H66.6422H66.6426L66.6432 34.999L66.6438 39.999C72.1662 39.9984 76.6422 35.5206 76.6422 29.999H71.6422ZM66.6432 34.999V29.999H66.6412V34.999V39.999H66.6432V34.999ZM66.6412 34.999H61.6412V35.8242H66.6412H71.6412V34.999H66.6412ZM66.6412 35.8242L66.1303 40.798C71.2135 41.3202 74.5379 42.7323 76.7773 44.4253C79.0012 46.1067 80.4854 48.3142 81.4872 50.9911C83.6247 56.7026 83.3483 63.6554 83.3483 70.5781L88.3483 70.5781L93.3483 70.5781C93.3483 64.5576 93.7853 55.3216 90.8528 47.486C89.3196 43.3894 86.823 39.4839 82.808 36.4485C78.8085 33.4247 73.636 31.5164 67.1521 30.8504L66.6412 35.8242ZM88.3483 70.5781H83.3483C83.3483 73.3044 82.7648 74.9491 82.0744 75.9997C81.3912 77.0393 80.3249 77.9217 78.6048 78.6432C74.8505 80.2179 69.1938 80.5762 61.6852 80.5762V85.5762V90.5762C68.902 90.5762 76.5768 90.3379 82.4728 87.8649C85.5777 86.5625 88.4162 84.5582 90.4314 81.4915C92.4395 78.4357 93.3483 74.7544 93.3483 70.5781H88.3483ZM61.6852 85.5762V80.5762C54.1766 80.5762 48.5198 80.2179 44.7656 78.6432C43.0455 77.9217 41.9792 77.0394 41.296 75.9997C40.6056 74.9491 40.0221 73.3044 40.0221 70.5781H35.0221H30.0221C30.0221 74.7544 30.9308 78.4357 32.9389 81.4915C34.9542 84.5582 37.7926 86.5625 40.8976 87.8649C46.7936 90.3379 54.4684 90.5762 61.6852 90.5762V85.5762ZM35.0221 70.5781L40.0221 70.5781C40.0221 64.0299 39.7637 57.4316 41.5896 51.8307C42.4551 49.1759 43.7378 46.9687 45.6142 45.2418C47.4781 43.5265 50.1998 42.0339 54.3489 41.2225L53.3893 36.3154L52.4297 31.4084C46.7523 32.5187 42.2649 34.734 38.8425 37.8836C35.4326 41.0217 33.3518 44.8364 32.0821 48.7312C29.6376 56.2295 30.0221 64.8409 30.0221 70.5781L35.0221 70.5781ZM53.3893 36.3154L57.8077 33.9749C58.0947 34.5167 58.3102 35.2095 58.3102 36.0059H53.3102H48.3102C48.3102 37.0264 48.5856 37.9286 48.9709 38.656L53.3893 36.3154ZM53.3102 36.0059H58.3102V34.998H53.3102H48.3102V36.0059H53.3102ZM53.3102 34.998L53.311 29.998C53.3045 29.998 53.3033 29.9975 53.3059 29.998C53.3081 29.9984 53.3107 29.9992 53.3129 30.0002C53.3166 30.0018 53.3153 30.0019 53.3118 29.9984C53.3083 29.9949 53.3085 29.9936 53.31 29.9973C53.311 29.9995 53.3118 30.0021 53.3122 30.0043C53.3127 30.0068 53.3121 30.0056 53.3121 29.999H48.3121H43.3121C43.3121 35.5208 47.7875 39.9971 53.3093 39.998L53.3102 34.998ZM48.3121 29.999L53.3121 29.9993C53.3121 29.9928 53.3127 29.9916 53.3122 29.9942C53.3117 29.9964 53.3109 29.999 53.31 30.0011C53.3085 30.0048 53.3084 30.0034 53.312 29.9998C53.3155 29.9962 53.317 29.9963 53.3133 29.9979C53.3111 29.9988 53.3085 29.9996 53.3063 30.0001C53.3037 30.0006 53.3049 30 53.3114 30L53.3112 25L53.3109 20C47.7888 20.0003 43.3125 24.4768 43.3121 29.9987L48.3121 29.999ZM53.3112 25V30H54.9782V25V20H53.3112V25Z" fill="#111111" mask="url(#path-1-outside-1_840_517)"/>
<path d="M46.1431 38.1623L44.1431 34.1623L56.1431 23.1623L58.6431 21.1623L59.9839 21.1235L61.2298 21.2198L71.6431 30.6623C71.7473 30.9751 72.1288 31.1701 72.7501 31.507C73.1219 31.7087 73.5688 31.9827 74.1679 31.9827C75.7679 31.9827 76.2095 32.5555 76.2095 32.8889L76.1431 38.6623H48.6431L46.1431 38.1623Z" fill="#111111"/>
<path d="M88.3481 70.5784C88.3481 84.3835 76.4108 85.5762 61.6854 85.5762C46.9599 85.5762 35.0226 84.3835 35.0226 70.5784C35.0226 56.7732 33.3987 35.5835 61.6854 35.5835C89.972 35.5835 88.3481 56.7732 88.3481 70.5784Z" fill="url(#paint1_linear_840_517)"/>
<rect x="56.6431" y="33.3321" width="3.33285" height="9.99854" rx="1.66642" transform="rotate(30 56.6431 33.3321)" fill="#171717" fill-opacity="0.1"/>
<rect width="3.33285" height="9.99854" rx="1.66642" transform="matrix(-0.866025 0.5 0.5 0.866025 64.5298 33.3321)" fill="#171717" fill-opacity="0.1"/>
<path d="M53.3101 34.0069C53.3101 33.6356 53.615 33.3359 53.9863 33.3404C58.5108 33.3954 61.3555 33.4202 65.9614 33.3439C66.3341 33.3377 66.6414 33.638 66.6414 34.0108V35.9972C66.6414 36.3658 66.3408 36.6644 65.9722 36.6642C61.4243 36.6618 58.5918 36.7179 53.9703 36.6721C53.6052 36.6685 53.3101 36.3712 53.3101 36.0061V34.0069Z" fill="#554C3E"/>
<path d="M48.312 29.9993C48.312 27.2383 50.5503 25.0001 53.3113 25.0001H54.9777C58.6591 25.0001 61.6434 27.9844 61.6434 31.6658V34.9986H53.3113C50.5503 34.9986 48.312 32.7603 48.312 29.9993Z" fill="url(#paint2_linear_840_517)"/>
<path d="M54.978 25.0001C56.6976 25.0001 58.2643 25.6521 59.4464 26.7215C59.7438 26.9906 60.2103 26.9906 60.5077 26.7215C61.6898 25.6521 63.2565 25.0001 64.9761 25.0001H66.6431C69.4039 25.0002 71.6419 27.2383 71.6421 29.9991C71.6421 32.76 69.404 34.999 66.6431 34.9991H53.311C50.5501 34.999 48.312 32.76 48.312 29.9991C48.3121 27.2383 50.5502 25.0002 53.311 25.0001H54.978Z" fill="url(#paint3_linear_840_517)"/>
<rect x="48.312" y="63.3277" width="26.6628" height="6.66569" rx="3.33285" fill="#A97D40"/>
</g>
<defs>
<filter id="filter0_dd_840_517" x="-8.35693" y="-3.33771" width="140" height="140" filterUnits="userSpaceOnUse" color-interpolation-filters="sRGB">
<feFlood flood-opacity="0" result="BackgroundImageFix"/>
<feColorMatrix in="SourceAlpha" type="matrix" values="0 0 0 0 0 0 0 0 0 0 0 0 0 0 0 0 0 0 127 0" result="hardAlpha"/>
<feOffset dy="10"/>
<feGaussianBlur stdDeviation="15"/>
<feComposite in2="hardAlpha" operator="out"/>
<feColorMatrix type="matrix" values="0 0 0 0 0 0 0 0 0 0 0 0 0 0 0 0 0 0 0.16 0"/>
<feBlend mode="normal" in2="BackgroundImageFix" result="effect1_dropShadow_840_517"/>
<feColorMatrix in="SourceAlpha" type="matrix" values="0 0 0 0 0 0 0 0 0 0 0 0 0 0 0 0 0 0 127 0" result="hardAlpha"/>
<feOffset/>
<feGaussianBlur stdDeviation="2.5"/>
<feComposite in2="hardAlpha" operator="out"/>
<feColorMatrix type="matrix" values="0 0 0 0 0 0 0 0 0 0 0 0 0 0 0 0 0 0 0.08 0"/>
<feBlend mode="normal" in2="effect1_dropShadow_840_517" result="effect2_dropShadow_840_517"/>
<feBlend mode="normal" in="SourceGraphic" in2="effect2_dropShadow_840_517" result="shape"/>
</filter>
<linearGradient id="paint0_linear_840_517" x1="61.6852" y1="25.0381" x2="87.0645" y2="80.3283" gradientUnits="userSpaceOnUse">
<stop stop-color="#EEE2C2"/>
<stop offset="1" stop-color="#EED573"/>
</linearGradient>
<linearGradient id="paint1_linear_840_517" x1="61.6854" y1="35.6149" x2="79.987" y2="83.9263" gradientUnits="userSpaceOnUse">
<stop stop-color="#EEE2C2"/>
<stop offset="1" stop-color="#EED573"/>
</linearGradient>
<linearGradient id="paint2_linear_840_517" x1="54.9777" y1="25.0063" x2="58.0462" y2="35.1247" gradientUnits="userSpaceOnUse">
<stop stop-color="#E2F1DE"/>
<stop offset="1" stop-color="#B8DDA2"/>
</linearGradient>
<linearGradient id="paint3_linear_840_517" x1="59.9771" y1="25.0063" x2="61.8361" y2="35.7336" gradientUnits="userSpaceOnUse">
<stop stop-color="#EEE2C2"/>
<stop offset="1" stop-color="#EED573"/>
</linearGradient>
</defs>
</svg>
