<svg width="62" height="66" viewBox="0 0 62 66" fill="none" xmlns="http://www.w3.org/2000/svg">
<g filter="url(#filter0_dd_768_485)">
<mask id="path-1-outside-1_768_485" maskUnits="userSpaceOnUse" x="14.5024" y="9.5" width="33" height="36" fill="black">
<rect fill="white" x="14.5024" y="9.5" width="33" height="36"/>
<path fill-rule="evenodd" clip-rule="evenodd" d="M27.4886 12.5C28.3481 12.5 29.1311 12.826 29.722 13.3604C29.8707 13.4949 30.1045 13.4949 30.2533 13.3604C30.8444 12.8258 31.6279 12.5001 32.4876 12.5H33.3206C34.7011 12.5 35.8206 13.6195 35.8206 15C35.8205 16.3804 34.701 17.499 33.3206 17.499V17.9111C44.8872 19.0995 44.1732 28.8175 44.1732 35.2891C44.1732 42.1916 38.2048 42.7881 30.8421 42.7881C23.4794 42.7881 17.5111 42.1916 17.5111 35.2891C17.5111 29.1462 16.8677 20.0787 26.6947 18.1572C26.6702 18.1109 26.6546 18.0589 26.6546 18.0029V17.498C25.2747 17.4975 24.1558 16.38 24.1556 15C24.1556 13.6195 25.2751 12.5 26.6556 12.5H27.4886Z"/>
</mask>
<path fill-rule="evenodd" clip-rule="evenodd" d="M27.4886 12.5C28.3481 12.5 29.1311 12.826 29.722 13.3604C29.8707 13.4949 30.1045 13.4949 30.2533 13.3604C30.8444 12.8258 31.6279 12.5001 32.4876 12.5H33.3206C34.7011 12.5 35.8206 13.6195 35.8206 15C35.8205 16.3804 34.701 17.499 33.3206 17.499V17.9111C44.8872 19.0995 44.1732 28.8175 44.1732 35.2891C44.1732 42.1916 38.2048 42.7881 30.8421 42.7881C23.4794 42.7881 17.5111 42.1916 17.5111 35.2891C17.5111 29.1462 16.8677 20.0787 26.6947 18.1572C26.6702 18.1109 26.6546 18.0589 26.6546 18.0029V17.498C25.2747 17.4975 24.1558 16.38 24.1556 15C24.1556 13.6195 25.2751 12.5 26.6556 12.5H27.4886Z" fill="url(#paint0_linear_768_485)"/>
<path d="M27.4886 12.5L27.4887 10H27.4886V12.5ZM29.722 13.3604L31.3989 11.5062L31.3988 11.5061L29.722 13.3604ZM30.2533 13.3604L28.5764 11.5061L28.5763 11.5062L30.2533 13.3604ZM32.4876 12.5V10H32.4874L32.4876 12.5ZM35.8206 15L38.3206 15.0003V15L35.8206 15ZM33.3206 17.499V14.999H30.8206V17.499H33.3206ZM33.3206 17.9111H30.8206V20.1674L33.0651 20.398L33.3206 17.9111ZM44.1732 35.2891L41.6732 35.2891V35.2891H44.1732ZM30.8421 42.7881V45.2881V45.2881V42.7881ZM17.5111 35.2891H20.0111V35.2891L17.5111 35.2891ZM26.6947 18.1572L27.1744 20.6108L30.4776 19.9649L28.905 16.9891L26.6947 18.1572ZM26.6546 17.498H29.1546V14.999L26.6556 14.998L26.6546 17.498ZM24.1556 15L21.6556 15V15.0004L24.1556 15ZM26.6556 12.5V10H26.6556L26.6556 12.5ZM27.4886 12.5L27.4885 15C27.7033 15 27.8949 15.0787 28.0452 15.2146L29.722 13.3604L31.3988 11.5061C30.3672 10.5732 28.9929 10.0001 27.4887 10L27.4886 12.5ZM29.722 13.3604L28.0451 15.2145C29.1459 16.2101 30.8293 16.2102 31.9302 15.2145L30.2533 13.3604L28.5763 11.5062C29.3797 10.7796 30.5955 10.7796 31.3989 11.5062L29.722 13.3604ZM30.2533 13.3604L31.9301 15.2146C32.0799 15.0791 32.2719 15 32.4878 15L32.4876 12.5L32.4874 10C30.984 10.0001 29.6088 10.5725 28.5764 11.5061L30.2533 13.3604ZM32.4876 12.5V15H33.3206V12.5V10H32.4876V12.5ZM33.3206 12.5V15V15L35.8206 15L38.3206 15C38.3206 12.2388 36.0819 10 33.3206 10V12.5ZM35.8206 15L33.3206 14.9997V14.999V17.499V19.999C36.0808 19.999 38.3203 17.7621 38.3206 15.0003L35.8206 15ZM33.3206 17.499H30.8206V17.9111H33.3206H35.8206V17.499H33.3206ZM33.3206 17.9111L33.0651 20.398C35.6066 20.6591 37.2686 21.3653 38.3882 22.2118C39.5 23.0525 40.2421 24.1564 40.7429 25.495C41.8116 28.351 41.6732 31.8277 41.6732 35.2891L44.1732 35.2891L46.6732 35.2891C46.6732 32.2789 46.8918 27.6608 45.4259 23.7428C44.6594 21.6944 43.4112 19.7415 41.4038 18.2236C39.4042 16.7116 36.818 15.7573 33.5761 15.4242L33.3206 17.9111ZM44.1732 35.2891H41.6732C41.6732 36.6523 41.3815 37.4746 41.0363 37.9999C40.6947 38.5197 40.1616 38.9609 39.3016 39.3216C37.4247 40.109 34.5964 40.2881 30.8421 40.2881V42.7881V45.2881C34.4505 45.2881 38.2878 45.169 41.2357 43.9324C42.7882 43.2812 44.2073 42.279 45.2149 40.7457C46.2189 39.2178 46.6732 37.3771 46.6732 35.2891H44.1732ZM30.8421 42.7881V40.2881C27.0878 40.2881 24.2596 40.109 22.3826 39.3216C21.5226 38.9609 20.9895 38.5197 20.648 37.9999C20.3028 37.4746 20.0111 36.6523 20.0111 35.2891H17.5111H15.0111C15.0111 37.3771 15.4654 39.2178 16.4694 40.7457C17.4769 42.279 18.8961 43.2812 20.4485 43.9324C23.3964 45.169 27.2337 45.2881 30.8421 45.2881V42.7881ZM17.5111 35.2891L20.0111 35.2891C20.0111 32.0148 19.8817 28.7155 20.7946 25.9149C21.2274 24.5875 21.8687 23.4838 22.8069 22.6204C23.7388 21.7627 25.0997 21.0164 27.1744 20.6108L26.6947 18.1572L26.2149 15.7037C23.3761 16.2588 21.1323 17.3664 19.421 18.9413C17.716 20.5104 16.6756 22.4178 16.0408 24.3653C14.8187 28.1146 15.0111 32.4205 15.0111 35.2891L17.5111 35.2891ZM26.6947 18.1572L28.905 16.9891C29.0371 17.2392 29.1546 17.5854 29.1546 18.0029H26.6546H24.1546C24.1546 18.5323 24.3032 18.9826 24.4843 19.3253L26.6947 18.1572ZM26.6546 18.0029H29.1546V17.498H26.6546H24.1546V18.0029H26.6546ZM26.6546 17.498L26.6556 14.998C26.6522 14.998 26.6514 14.9977 26.6525 14.998C26.6535 14.9982 26.6546 14.9985 26.6556 14.9989C26.6573 14.9996 26.6566 14.9997 26.6549 14.998C26.6532 14.9963 26.6535 14.9958 26.6544 14.998C26.6549 14.9992 26.6553 15.0006 26.6556 15.0019C26.6559 15.0033 26.6556 15.0028 26.6556 14.9996L24.1556 15L21.6556 15.0004C21.656 17.7627 23.8957 19.997 26.6536 19.998L26.6546 17.498ZM24.1556 15L26.6556 15L26.6556 15L26.6556 12.5L26.6556 10C23.8944 10 21.6556 12.2388 21.6556 15L24.1556 15ZM26.6556 12.5V15H27.4886V12.5V10H26.6556V12.5Z" fill="white" mask="url(#path-1-outside-1_768_485)"/>
<path d="M44.1738 35.2892C44.1738 42.1917 38.2052 42.7881 30.8424 42.7881C23.4797 42.7881 17.5111 42.1917 17.5111 35.2892C17.5111 28.3866 16.6991 17.7918 30.8424 17.7917C44.9858 17.7917 44.1738 28.3866 44.1738 35.2892Z" fill="url(#paint1_linear_768_485)"/>
<rect x="28.3213" y="16.6661" width="1.66642" height="4.99927" rx="0.833212" transform="rotate(30 28.3213 16.6661)" fill="#171717" fill-opacity="0.1"/>
<rect width="1.66642" height="4.99927" rx="0.833212" transform="matrix(-0.866025 0.5 0.5 0.866025 32.2646 16.6661)" fill="#171717" fill-opacity="0.1"/>
<path d="M26.6548 17.0035C26.6548 16.8178 26.8072 16.668 26.9929 16.6702C29.2552 16.6977 30.6775 16.7101 32.9804 16.672C33.1668 16.6689 33.3205 16.819 33.3205 17.0054V17.9986C33.3205 18.1829 33.1702 18.3322 32.9859 18.3321C30.7119 18.3309 29.2956 18.359 26.9849 18.3361C26.8024 18.3342 26.6548 18.1856 26.6548 18.0031V17.0035Z" fill="#554C3E"/>
<path d="M24.1558 14.9996C24.1558 13.6191 25.2749 12.5 26.6554 12.5H27.4886C29.3293 12.5 30.8215 13.9922 30.8215 15.8328V17.4993H26.6554C25.2749 17.4993 24.1558 16.3801 24.1558 14.9996Z" fill="url(#paint2_linear_768_485)"/>
<path d="M27.4888 12.5C28.3483 12.5 29.1315 12.8258 29.7225 13.3603C29.8712 13.4948 30.1044 13.4948 30.2531 13.3603C30.8442 12.8257 31.628 12.5001 32.4878 12.5H33.3208C34.7013 12.5 35.8208 13.6195 35.8208 15C35.8206 16.3804 34.7012 17.499 33.3208 17.499H26.6558C25.2754 17.499 24.156 16.3803 24.1558 15C24.1558 13.6195 25.2753 12.5 26.6558 12.5H27.4888Z" fill="url(#paint3_linear_768_485)"/>
<rect x="24.1558" y="31.6638" width="13.3314" height="3.33285" rx="1.66642" fill="#A97D40"/>
</g>
<defs>
<filter id="filter0_dd_768_485" x="-4.17871" y="-1.66882" width="70" height="70" filterUnits="userSpaceOnUse" color-interpolation-filters="sRGB">
<feFlood flood-opacity="0" result="BackgroundImageFix"/>
<feColorMatrix in="SourceAlpha" type="matrix" values="0 0 0 0 0 0 0 0 0 0 0 0 0 0 0 0 0 0 127 0" result="hardAlpha"/>
<feOffset dy="5"/>
<feGaussianBlur stdDeviation="7.5"/>
<feComposite in2="hardAlpha" operator="out"/>
<feColorMatrix type="matrix" values="0 0 0 0 0 0 0 0 0 0 0 0 0 0 0 0 0 0 0.16 0"/>
<feBlend mode="normal" in2="BackgroundImageFix" result="effect1_dropShadow_768_485"/>
<feColorMatrix in="SourceAlpha" type="matrix" values="0 0 0 0 0 0 0 0 0 0 0 0 0 0 0 0 0 0 127 0" result="hardAlpha"/>
<feOffset/>
<feGaussianBlur stdDeviation="1.25"/>
<feComposite in2="hardAlpha" operator="out"/>
<feColorMatrix type="matrix" values="0 0 0 0 0 0 0 0 0 0 0 0 0 0 0 0 0 0 0.08 0"/>
<feBlend mode="normal" in2="effect1_dropShadow_768_485" result="effect2_dropShadow_768_485"/>
<feBlend mode="normal" in="SourceGraphic" in2="effect2_dropShadow_768_485" result="shape"/>
</filter>
<linearGradient id="paint0_linear_768_485" x1="30.8421" y1="12.519" x2="43.5321" y2="40.1638" gradientUnits="userSpaceOnUse">
<stop stop-color="#EEE2C2"/>
<stop offset="1" stop-color="#EED573"/>
</linearGradient>
<linearGradient id="paint1_linear_768_485" x1="30.8424" y1="17.8075" x2="39.9933" y2="41.9631" gradientUnits="userSpaceOnUse">
<stop stop-color="#EEE2C2"/>
<stop offset="1" stop-color="#EED573"/>
</linearGradient>
<linearGradient id="paint2_linear_768_485" x1="27.4886" y1="12.5031" x2="29.0228" y2="17.5623" gradientUnits="userSpaceOnUse">
<stop stop-color="#E2F1DE"/>
<stop offset="1" stop-color="#B8DDA2"/>
</linearGradient>
<linearGradient id="paint3_linear_768_485" x1="29.9883" y1="12.5031" x2="30.9176" y2="17.8663" gradientUnits="userSpaceOnUse">
<stop stop-color="#EEE2C2"/>
<stop offset="1" stop-color="#EED573"/>
</linearGradient>
</defs>
</svg>
