<svg width="24" height="24" viewBox="0 0 24 24" fill="none" xmlns="http://www.w3.org/2000/svg">
<path d="M12 22C17.5228 22 22 17.5228 22 12L12 2C6.47715 2 2 6.47715 2 12C2 17.5228 6.47715 22 12 22Z" fill="url(#paint0_linear_737_65)"/>
<path d="M12 5C12.1556 5 12.3099 5.00661 12.4629 5.0166C13.4413 8.11291 15.8863 10.5573 18.9824 11.5361C18.9925 11.6895 19 11.8441 19 12C19 15.866 15.866 19 12 19C8.13401 19 5 15.866 5 12C5 8.13401 8.13401 5 12 5Z" fill="url(#paint1_linear_737_65)"/>
<path d="M22 12C16.4772 12 12 7.52285 12 2L22 12Z" fill="#171717" fill-opacity="0.2"/>
<path d="M15 14.5C15 15.8807 13.6569 17 12 17C10.3431 17 9 15.8807 9 14.5" stroke="#171717" stroke-linecap="round"/>
<defs>
<linearGradient id="paint0_linear_737_65" x1="12" y1="2" x2="18" y2="20" gradientUnits="userSpaceOnUse">
<stop stop-color="#1BC4C4"/>
<stop offset="1" stop-color="#119595"/>
</linearGradient>
<linearGradient id="paint1_linear_737_65" x1="8" y1="4" x2="19" y2="20.5" gradientUnits="userSpaceOnUse">
<stop stop-color="#FBF9F9"/>
<stop offset="1" stop-color="#BEF7F2"/>
</linearGradient>
</defs>
</svg>
