<svg width="16" height="16" viewBox="0 0 16 16" fill="none" xmlns="http://www.w3.org/2000/svg">
<path d="M8 15.5C11.866 15.5 15 12.366 15 8.5L8 1.5C4.13401 1.5 1 4.63401 1 8.5C1 12.366 4.13401 15.5 8 15.5Z" fill="url(#paint0_linear_736_127)"/>
<path d="M8.00049 3.59998C8.10945 3.59998 8.21751 3.60468 8.32471 3.61169C9.00968 5.77902 10.7209 7.48905 12.8882 8.17419C12.8953 8.2819 12.8999 8.39087 12.8999 8.50037C12.8997 11.2063 10.7064 13.3996 8.00049 13.3998C5.29442 13.3998 3.10031 11.2064 3.1001 8.50037C3.1001 5.79417 5.29429 3.59998 8.00049 3.59998Z" fill="url(#paint1_linear_736_127)"/>
<path d="M15 8.5C11.134 8.5 8 5.36599 8 1.5L15 8.5Z" fill="#171717" fill-opacity="0.2"/>
<path d="M10.0999 10.25C10.0999 11.2165 9.1597 12 7.9999 12C6.8401 12 5.8999 11.2165 5.8999 10.25" stroke="#171717" stroke-width="0.7" stroke-linecap="round"/>
<defs>
<linearGradient id="paint0_linear_736_127" x1="8" y1="1.5" x2="12.2" y2="14.1" gradientUnits="userSpaceOnUse">
<stop stop-color="#1BC4C4"/>
<stop offset="1" stop-color="#119595"/>
</linearGradient>
<linearGradient id="paint1_linear_736_127" x1="5.20006" y1="2.89999" x2="12.8999" y2="14.4498" gradientUnits="userSpaceOnUse">
<stop stop-color="#FBF9F9"/>
<stop offset="1" stop-color="#F7E9BE"/>
</linearGradient>
</defs>
</svg>
