<svg width="24" height="24" viewBox="0 0 24 24" fill="none" xmlns="http://www.w3.org/2000/svg">
<path d="M8 3.5C8 2.67157 8.67157 2 9.5 2H10C11.1046 2 12 2.89543 12 4V5H9.5C8.67157 5 8 4.32843 8 3.5Z" fill="url(#paint0_linear_736_280)"/>
<path d="M21.0069 16.7767C21.0069 21.4336 16.98 21.8359 12.0127 21.8359C7.04534 21.8359 3.01851 21.4336 3.01851 16.7767C3.01851 12.1198 2.47072 4.97183 12.0127 4.97183C21.5547 4.97183 21.0069 12.1198 21.0069 16.7767Z" fill="url(#paint1_linear_736_280)"/>
<path d="M12.0127 5.25308C14.3644 5.25308 16.0675 5.6938 17.3037 6.40543C18.5358 7.11483 19.3241 8.10489 19.8311 9.24234C20.8564 11.5431 20.7256 14.419 20.7256 16.7765C20.7256 17.8998 20.4834 18.7409 20.0654 19.3771C19.6477 20.0127 19.0386 20.4681 18.2637 20.7931C16.6962 21.4506 14.5046 21.5548 12.0127 21.5548C9.52082 21.5548 7.32915 21.4506 5.76172 20.7931C4.98683 20.4681 4.37765 20.0127 3.95996 19.3771C3.54202 18.7409 3.2998 17.8998 3.2998 16.7765C3.2998 14.419 3.16899 11.5431 4.19434 9.24234C4.70127 8.10488 5.48958 7.11483 6.72168 6.40543C7.95786 5.6938 9.66096 5.25308 12.0127 5.25308Z" stroke="#171717" stroke-opacity="0.02" stroke-width="0.562137"/>
<path d="M12.7138 4.66251C12.5086 4.46364 12.1856 4.45761 11.9688 4.64375C11.7164 4.86051 11.7082 5.24741 11.9448 5.48136C12.5047 6.03505 12.8969 6.48643 13.3353 7.09339C13.5308 7.36417 13.9162 7.4172 14.1697 7.1996C14.3847 7.01494 14.4283 6.6976 14.2646 6.46613C13.7659 5.76065 13.3469 5.27609 12.7138 4.66251Z" fill="#171717" fill-opacity="0.1"/>
<path d="M10.3228 4.48286C10.5468 4.31814 10.8575 4.34986 11.0507 4.54983C11.2877 4.79513 11.255 5.19138 10.9887 5.40456C10.4494 5.83638 10.0619 6.2058 9.64023 6.69858C9.41693 6.95956 9.01658 6.98188 8.77793 6.73486C8.58722 6.53745 8.56423 6.23024 8.73286 6.01367C9.21129 5.39924 9.63953 4.98532 10.3228 4.48286Z" fill="#171717" fill-opacity="0.1"/>
<path d="M9.1875 4.22277C9.1875 3.90828 9.44586 3.65507 9.7603 3.66052C10.9828 3.68172 11.8643 3.69008 13.1069 3.6641C13.4232 3.65749 13.6846 3.9113 13.6846 4.22766V4.76038C13.6846 5.07142 13.4316 5.32322 13.1206 5.32381C11.8823 5.32617 10.9992 5.34545 9.7404 5.33181C9.43375 5.32849 9.1875 5.07818 9.1875 4.77151V4.22277Z" fill="#6BB170"/>
<mask id="path-7-inside-1_736_280" fill="white">
<path d="M9.75049 0.839569C10.3309 0.839689 10.8585 1.06096 11.2569 1.42243C11.3572 1.51345 11.5148 1.51344 11.6151 1.42241C12.0138 1.06077 12.5419 0.839638 13.1226 0.839569H13.6851C14.6164 0.839618 15.3716 1.59474 15.3716 2.52609C15.3715 3.45739 14.6164 4.21257 13.6851 4.21262H9.18799C8.25665 4.21262 7.50153 3.45742 7.50146 2.52609C7.50146 1.59471 8.25661 0.839569 9.18799 0.839569H9.75049Z"/>
</mask>
<path d="M9.75049 0.839569C10.3309 0.839689 10.8585 1.06096 11.2569 1.42243C11.3572 1.51345 11.5148 1.51344 11.6151 1.42241C12.0138 1.06077 12.5419 0.839638 13.1226 0.839569H13.6851C14.6164 0.839618 15.3716 1.59474 15.3716 2.52609C15.3715 3.45739 14.6164 4.21257 13.6851 4.21262H9.18799C8.25665 4.21262 7.50153 3.45742 7.50146 2.52609C7.50146 1.59471 8.25661 0.839569 9.18799 0.839569H9.75049Z" fill="url(#paint2_linear_736_280)"/>
<path d="M9.75049 0.839569L9.7506 0.277432H9.75049V0.839569ZM13.1226 0.839569V0.277432H13.1225L13.1226 0.839569ZM13.6851 0.839569L13.6851 0.277432H13.6851V0.839569ZM15.3716 2.52609L15.9337 2.52613V2.52609H15.3716ZM13.6851 4.21262V4.77475H13.6851L13.6851 4.21262ZM7.50146 2.52609H6.93933V2.52613L7.50146 2.52609ZM11.6151 1.42241L11.2374 1.00607L11.6151 1.42241ZM9.75049 0.839569L9.75037 1.40171C10.1848 1.4018 10.5793 1.56674 10.8792 1.83877L11.2569 1.42243L11.6346 1.00609C11.1376 0.555183 10.477 0.277583 9.7506 0.277432L9.75049 0.839569ZM11.6151 1.42241L11.9929 1.83875C12.2927 1.56671 12.6877 1.40176 13.1226 1.40171L13.1226 0.839569L13.1225 0.277432C12.3961 0.277519 11.7348 0.554826 11.2374 1.00607L11.6151 1.42241ZM13.1226 0.839569V1.40171H13.6851V0.839569V0.277432H13.1226V0.839569ZM13.6851 0.839569L13.685 1.40171C14.306 1.40174 14.8094 1.90523 14.8094 2.52609H15.3716H15.9337C15.9337 1.28426 14.9268 0.277497 13.6851 0.277432L13.6851 0.839569ZM15.3716 2.52609L14.8094 2.52606C14.8094 3.14693 14.3059 3.65045 13.685 3.65048L13.6851 4.21262L13.6851 4.77475C14.9268 4.77469 15.9336 3.76785 15.9337 2.52613L15.3716 2.52609ZM13.6851 4.21262V3.65048H9.18799V4.21262V4.77475H13.6851V4.21262ZM9.18799 4.21262V3.65048C8.56714 3.65048 8.06364 3.14699 8.0636 2.52606L7.50146 2.52609L6.93933 2.52613C6.93941 3.76785 7.94615 4.77475 9.18799 4.77475V4.21262ZM7.50146 2.52609H8.0636C8.0636 1.90517 8.56707 1.40171 9.18799 1.40171V0.839569V0.277432C7.94615 0.277432 6.93933 1.28425 6.93933 2.52609H7.50146ZM9.18799 0.839569V1.40171H9.75049V0.839569V0.277432H9.18799V0.839569ZM11.2569 1.42243L10.8792 1.83877C11.1939 2.12424 11.6783 2.12412 11.9929 1.83875L11.6151 1.42241L11.2374 1.00607C11.3513 0.902747 11.5206 0.90267 11.6346 1.00609L11.2569 1.42243Z" fill="black" fill-opacity="0.03" mask="url(#path-7-inside-1_736_280)"/>
<rect x="7.50146" y="14.3308" width="8.99419" height="2.24855" rx="1.12427" fill="#6CB170"/>
<defs>
<linearGradient id="paint0_linear_736_280" x1="10" y1="2.00189" x2="10.9207" y2="5.03784" gradientUnits="userSpaceOnUse">
<stop stop-color="#E2F1DE"/>
<stop offset="1" stop-color="#B8DDA2"/>
</linearGradient>
<linearGradient id="paint1_linear_736_280" x1="12.0127" y1="4.98244" x2="18.1864" y2="21.2794" gradientUnits="userSpaceOnUse">
<stop stop-color="#E2F1DE"/>
<stop offset="1" stop-color="#B8DDA2"/>
</linearGradient>
<linearGradient id="paint2_linear_736_280" x1="11.4365" y1="0.84169" x2="12.0636" y2="4.46041" gradientUnits="userSpaceOnUse">
<stop stop-color="#E2F1DE"/>
<stop offset="1" stop-color="#B8DDA2"/>
</linearGradient>
</defs>
</svg>
