<svg width="62" height="67" viewBox="0 0 62 67" fill="none" xmlns="http://www.w3.org/2000/svg">
<g filter="url(#filter0_dd_736_153)">
<path d="M24.1567 15C24.1567 13.6193 25.276 12.5 26.6567 12.5H27.4901C29.331 12.5 30.8234 13.9924 30.8234 15.8333V17.5H26.6567C25.276 17.5 24.1567 16.3807 24.1567 15Z" fill="url(#paint0_linear_736_153)"/>
<mask id="path-2-outside-1_736_153" maskUnits="userSpaceOnUse" x="14.5024" y="9.5" width="33" height="37" fill="black">
<rect fill="white" x="14.5024" y="9.5" width="33" height="37"/>
<path fill-rule="evenodd" clip-rule="evenodd" d="M27.4896 12.5C28.3492 12.5001 29.1328 12.8258 29.7239 13.3604C29.8726 13.4948 30.1055 13.4947 30.2542 13.3604C30.8454 12.8257 31.6298 12.5001 32.4896 12.5H33.3236C34.704 12.5003 35.8235 13.6195 35.8236 15C35.8236 16.3805 34.704 17.4997 33.3236 17.5H33.3216C33.3218 17.5075 33.3226 17.5149 33.3226 17.5225V18.3125C33.3226 18.4671 33.2798 18.6112 33.2064 18.7354C44.8961 19.8704 44.178 29.6318 44.178 36.126C44.1779 43.0294 38.2078 43.626 30.8441 43.626C23.4804 43.626 17.5112 43.0293 17.5111 36.126C17.5111 29.9332 16.8576 20.7696 26.9339 18.9482C26.7638 18.796 26.6566 18.5751 26.6566 18.3291V17.5156C26.6566 17.5105 26.6574 17.5051 26.6575 17.5H26.6566C25.2759 17.5 24.1566 16.3807 24.1566 15C24.1566 13.6193 25.2759 12.5 26.6566 12.5H27.4896Z"/>
</mask>
<path fill-rule="evenodd" clip-rule="evenodd" d="M27.4896 12.5C28.3492 12.5001 29.1328 12.8258 29.7239 13.3604C29.8726 13.4948 30.1055 13.4947 30.2542 13.3604C30.8454 12.8257 31.6298 12.5001 32.4896 12.5H33.3236C34.704 12.5003 35.8235 13.6195 35.8236 15C35.8236 16.3805 34.704 17.4997 33.3236 17.5H33.3216C33.3218 17.5075 33.3226 17.5149 33.3226 17.5225V18.3125C33.3226 18.4671 33.2798 18.6112 33.2064 18.7354C44.8961 19.8704 44.178 29.6318 44.178 36.126C44.1779 43.0294 38.2078 43.626 30.8441 43.626C23.4804 43.626 17.5112 43.0293 17.5111 36.126C17.5111 29.9332 16.8576 20.7696 26.9339 18.9482C26.7638 18.796 26.6566 18.5751 26.6566 18.3291V17.5156C26.6566 17.5105 26.6574 17.5051 26.6575 17.5H26.6566C25.2759 17.5 24.1566 16.3807 24.1566 15C24.1566 13.6193 25.2759 12.5 26.6566 12.5H27.4896Z" fill="url(#paint1_linear_736_153)"/>
<path d="M27.4896 12.5L27.4898 10H27.4896V12.5ZM29.7239 13.3604L28.0472 15.2147L28.0473 15.2148L29.7239 13.3604ZM30.2542 13.3604L31.9296 15.2159L31.9311 15.2146L30.2542 13.3604ZM32.4896 12.5V10H32.4893L32.4896 12.5ZM33.3236 12.5L33.3241 10H33.3236V12.5ZM35.8236 15L38.3236 15V15L35.8236 15ZM33.3236 17.5V20H33.3241L33.3236 17.5ZM33.3216 17.5V15H30.7538L30.8225 17.5668L33.3216 17.5ZM33.3226 17.5225H35.8226V17.5218L33.3226 17.5225ZM33.3226 18.3125L35.8226 18.3128V18.3125H33.3226ZM33.2064 18.7354L31.0548 17.4623L29.0539 20.8439L32.9648 21.2236L33.2064 18.7354ZM44.178 36.126L46.678 36.126V36.126H44.178ZM30.8441 43.626L30.8441 46.126H30.8441V43.626ZM17.5111 36.126H15.0111V36.126L17.5111 36.126ZM26.9339 18.9482L27.3786 21.4084L32.4146 20.4981L28.6011 17.0853L26.9339 18.9482ZM26.6566 18.3291H24.1566V18.3297L26.6566 18.3291ZM26.6575 17.5L29.1571 17.5454L29.2034 15H26.6575V17.5ZM24.1566 15H21.6566V15L24.1566 15ZM26.6566 12.5V10V10V12.5ZM27.4896 12.5L27.4894 15C27.7052 15 27.8973 15.0791 28.0472 15.2147L29.7239 13.3604L31.4007 11.506C30.3684 10.5726 28.9932 10.0001 27.4898 10L27.4896 12.5ZM29.7239 13.3604L28.0473 15.2148C29.1492 16.211 30.8303 16.2084 31.9296 15.2159L30.2542 13.3604L28.5789 11.5048C29.3806 10.7809 30.596 10.7785 31.4005 11.5059L29.7239 13.3604ZM30.2542 13.3604L31.9311 15.2146C32.0803 15.0796 32.2729 15 32.4898 15L32.4896 12.5L32.4893 10C30.9866 10.0002 29.6105 10.5719 28.5774 11.5061L30.2542 13.3604ZM32.4896 12.5V15H33.3236V12.5V10H32.4896V12.5ZM33.3236 12.5L33.323 15L33.3236 15L35.8236 15L38.3236 15C38.3235 12.2382 36.0843 10.0007 33.3241 10L33.3236 12.5ZM35.8236 15L33.3236 15L33.323 15L33.3236 17.5L33.3241 20C36.0842 19.9994 38.3235 17.7618 38.3236 15L35.8236 15ZM33.3236 17.5V15H33.3216V17.5V20H33.3236V17.5ZM33.3216 17.5L30.8225 17.5668C30.8234 17.5998 30.8247 17.6262 30.8255 17.6403C30.8259 17.6474 30.8262 17.6533 30.8263 17.6558C30.8264 17.657 30.8265 17.6583 30.8265 17.6583C30.8265 17.6586 30.8265 17.6581 30.8264 17.6573C30.8263 17.655 30.8254 17.6391 30.8245 17.6181C30.8236 17.5964 30.8226 17.5634 30.8226 17.5231L33.3226 17.5225L35.8226 17.5218C35.8226 17.4777 35.8214 17.441 35.8204 17.4155C35.8194 17.3908 35.8182 17.3711 35.8179 17.3652C35.8179 17.3645 35.8174 17.357 35.8176 17.361C35.8177 17.3617 35.8179 17.3656 35.8182 17.371C35.8188 17.3813 35.8199 17.404 35.8207 17.4332L33.3216 17.5ZM33.3226 17.5225H30.8226V18.3125H33.3226H35.8226V17.5225H33.3226ZM33.3226 18.3125L30.8226 18.3122C30.8226 17.998 30.9111 17.7051 31.0548 17.4623L33.2064 18.7354L35.358 20.0084C35.6485 19.5174 35.8225 18.9362 35.8226 18.3128L33.3226 18.3125ZM33.2064 18.7354L32.9648 21.2236C35.5394 21.4736 37.2236 22.1762 38.3573 23.022C39.4822 23.8612 40.2314 24.9652 40.7371 26.3042C41.8168 29.1634 41.678 32.6518 41.678 36.126H44.178H46.678C46.678 33.106 46.8983 28.4666 45.4146 24.5378C44.6386 22.4828 43.3755 20.5277 41.3472 19.0145C39.3278 17.5079 36.7182 16.5646 33.448 16.2471L33.2064 18.7354ZM44.178 36.126L41.678 36.1259C41.678 37.4893 41.3862 38.3117 41.0409 38.8372C40.6992 39.3572 40.1658 39.7985 39.3055 40.1593C37.4278 40.9468 34.5988 41.126 30.8441 41.126V43.626V46.126C34.453 46.126 38.2909 46.0068 41.2394 44.7702C42.7921 44.1189 44.2115 43.1167 45.2193 41.5833C46.2235 40.0553 46.678 38.2144 46.678 36.126L44.178 36.126ZM30.8441 43.626L30.8441 41.126C27.0893 41.126 24.2606 40.9468 22.3833 40.1593C21.5231 39.7985 20.9898 39.3572 20.6481 38.8373C20.3029 38.3118 20.0111 37.4893 20.0111 36.1259L17.5111 36.126L15.0111 36.126C15.0111 38.2143 15.4655 40.0551 16.4696 41.5831C17.4773 43.1166 18.8966 44.1188 20.4492 44.7701C23.3974 46.0068 27.2352 46.126 30.8441 46.126L30.8441 43.626ZM17.5111 36.126H20.0111C20.0111 32.8235 19.8804 29.4974 20.8159 26.6875C21.2586 25.3577 21.9145 24.2539 22.8768 23.3936C23.8346 22.5374 25.2374 21.7954 27.3786 21.4084L26.9339 18.9482L26.4892 16.4881C23.5922 17.0118 21.2981 18.0982 19.5445 19.666C17.7954 21.2296 16.7253 23.1453 16.0719 25.1081C14.815 28.8835 15.0111 33.2356 15.0111 36.126H17.5111ZM26.9339 18.9482L28.6011 17.0853C28.9368 17.3857 29.1564 17.832 29.1566 18.3285L26.6566 18.3291L24.1566 18.3297C24.1568 19.3181 24.5907 20.2062 25.2667 20.8112L26.9339 18.9482ZM26.6566 18.3291H29.1566V17.5156H26.6566H24.1566V18.3291H26.6566ZM26.6566 17.5156H29.1566C29.1566 17.5505 29.1558 17.5814 29.1548 17.6073C29.1539 17.6332 29.1526 17.6554 29.1515 17.6728C29.1504 17.69 29.1493 17.704 29.1486 17.713C29.1479 17.7216 29.1473 17.7282 29.1472 17.7288C29.1472 17.729 29.1472 17.7292 29.1472 17.7289C29.1472 17.7288 29.1473 17.7282 29.1473 17.7276C29.1475 17.7263 29.1477 17.7236 29.148 17.7203C29.1485 17.7139 29.1495 17.7021 29.1506 17.6875C29.1517 17.6727 29.153 17.6529 29.1542 17.6295C29.1554 17.6061 29.1565 17.5777 29.1571 17.5454L26.6575 17.5L24.158 17.4546C24.1591 17.394 24.1622 17.346 24.1641 17.3203C24.1651 17.3069 24.166 17.2965 24.1664 17.2914C24.1667 17.2877 24.1672 17.2824 24.1668 17.2868C24.1666 17.2887 24.1659 17.2966 24.1651 17.3065C24.1643 17.3168 24.1631 17.3321 24.1619 17.3507C24.1596 17.3868 24.1566 17.4446 24.1566 17.5156H26.6566ZM26.6575 17.5V15H26.6566V17.5V20H26.6575V17.5ZM26.6566 17.5V15V15L24.1566 15L21.6566 15C21.6566 17.7614 23.8951 20 26.6566 20V17.5ZM24.1566 15H26.6566V15V12.5V10C23.8951 10 21.6566 12.2386 21.6566 15H24.1566ZM26.6566 12.5V15H27.4896V12.5V10H26.6566V12.5Z" fill="white" mask="url(#path-2-outside-1_736_153)"/>
<path d="M44.1777 36.1258C44.1777 43.0294 38.2082 43.6258 30.8444 43.6258C23.4806 43.6258 17.5111 43.0294 17.5111 36.1258C17.5111 29.2222 16.699 18.6258 30.8444 18.6258C44.9898 18.6258 44.1777 29.2222 44.1777 36.1258Z" fill="url(#paint2_linear_736_153)"/>
<path d="M30.8442 19.2508C34.3055 19.2508 36.7912 19.8997 38.5835 20.9315C40.3673 21.9584 41.5086 23.3902 42.2446 25.0418C43.742 28.402 43.5522 32.6093 43.5522 36.1258C43.5522 37.761 43.2002 38.9656 42.6079 39.867C42.0165 40.767 41.1506 41.4188 40.0308 41.8885C37.7518 42.8444 34.5443 43.0008 30.8442 43.0008C27.1442 43.0008 23.9367 42.8444 21.6577 41.8885C20.538 41.4188 19.673 40.7669 19.0815 39.867C18.4892 38.9656 18.1362 37.7611 18.1362 36.1258C18.1362 32.6094 17.9466 28.402 19.4438 25.0418C20.1799 23.3902 21.3213 21.9584 23.105 20.9315C24.8973 19.8997 27.383 19.2508 30.8442 19.2508Z" stroke="#171717" stroke-opacity="0.02" stroke-width="1.25"/>
<path d="M31.884 18.1673C31.5798 17.8725 31.1009 17.8635 30.7796 18.1395C30.4053 18.4608 30.3931 19.0343 30.7439 19.3812C31.574 20.202 32.1553 20.8711 32.8052 21.7709C33.0951 22.1723 33.6665 22.2509 34.0421 21.9283C34.3609 21.6546 34.4255 21.1842 34.1829 20.841C33.4436 19.7952 32.8224 19.0769 31.884 18.1673Z" fill="#171717" fill-opacity="0.1"/>
<path d="M28.3392 17.9009C28.6713 17.6567 29.1319 17.7038 29.4183 18.0002C29.7697 18.3639 29.7212 18.9513 29.3265 19.2673C28.5269 19.9074 27.9524 20.4551 27.3274 21.1856C26.9964 21.5725 26.4029 21.6056 26.0491 21.2394C25.7664 20.9467 25.7323 20.4913 25.9823 20.1703C26.6915 19.2594 27.3264 18.6458 28.3392 17.9009Z" fill="#171717" fill-opacity="0.1"/>
<path d="M26.6562 17.5154C26.6562 17.0492 27.0393 16.6738 27.5054 16.6819C29.3177 16.7134 30.6245 16.7258 32.4666 16.6872C32.9355 16.6774 33.3229 17.0537 33.3229 17.5227V18.3124C33.3229 18.7735 32.9479 19.1468 32.4868 19.1477C30.6511 19.1512 29.342 19.1797 27.4759 19.1595C27.0213 19.1546 26.6562 18.7835 26.6562 18.3289V17.5154Z" fill="#6BB170"/>
<mask id="path-9-inside-2_736_153" fill="white">
<path d="M27.4893 12.5C28.349 12.5 29.1327 12.8258 29.7239 13.3603C29.8727 13.4948 30.1058 13.4948 30.2546 13.3603C30.8457 12.8257 31.6295 12.5001 32.4893 12.5H33.3232C34.7038 12.5002 35.8232 13.6194 35.8232 15C35.8232 16.3806 34.7038 17.4998 33.3232 17.5H26.6562C25.2755 17.5 24.1562 16.3807 24.1562 15C24.1562 13.6193 25.2755 12.5 26.6562 12.5H27.4893Z"/>
</mask>
<path d="M27.4893 12.5C28.349 12.5 29.1327 12.8258 29.7239 13.3603C29.8727 13.4948 30.1058 13.4948 30.2546 13.3603C30.8457 12.8257 31.6295 12.5001 32.4893 12.5H33.3232C34.7038 12.5002 35.8232 13.6194 35.8232 15C35.8232 16.3806 34.7038 17.4998 33.3232 17.5H26.6562C25.2755 17.5 24.1562 16.3807 24.1562 15C24.1562 13.6193 25.2755 12.5 26.6562 12.5H27.4893Z" fill="url(#paint3_linear_736_153)"/>
<path d="M32.4893 12.5V11.25H32.4891L32.4893 12.5ZM33.3232 12.5L33.3234 11.25H33.3232V12.5ZM35.8232 15H37.0732V15L35.8232 15ZM33.3232 17.5V18.75H33.3234L33.3232 17.5ZM26.6562 12.5V11.25V11.25V12.5ZM30.2546 13.3603L29.4162 12.4332L30.2546 13.3603ZM27.4893 12.5V13.75C28.0271 13.75 28.515 13.9524 28.8855 14.2875L29.7239 13.3603L30.5623 12.4332C29.7505 11.6991 28.671 11.25 27.4893 11.25V12.5ZM30.2546 13.3603L31.093 14.2874C31.4634 13.9525 31.9513 13.7501 32.4894 13.75L32.4893 12.5L32.4891 11.25C31.3077 11.2501 30.2281 11.6989 29.4162 12.4332L30.2546 13.3603ZM32.4893 12.5V13.75H33.3232V12.5V11.25H32.4893V12.5ZM33.3232 12.5L33.3231 13.75C34.0136 13.7501 34.5732 14.3099 34.5732 15L35.8232 15L37.0732 15C37.0732 12.9289 35.3941 11.2502 33.3234 11.25L33.3232 12.5ZM35.8232 15H34.5732C34.5732 15.6901 34.0136 16.2499 33.3231 16.25L33.3232 17.5L33.3234 18.75C35.3941 18.7498 37.0732 17.0711 37.0732 15H35.8232ZM33.3232 17.5V16.25H26.6562V17.5V18.75H33.3232V17.5ZM26.6562 17.5V16.25C25.9659 16.25 25.4062 15.6904 25.4062 15H24.1562H22.9062C22.9062 17.0711 24.5852 18.75 26.6562 18.75V17.5ZM24.1562 15H25.4062C25.4062 14.3096 25.9659 13.75 26.6562 13.75V12.5V11.25C24.5852 11.25 22.9062 12.9289 22.9062 15H24.1562ZM26.6562 12.5V13.75H27.4893V12.5V11.25H26.6562V12.5ZM29.7239 13.3603L28.8855 14.2875C29.5104 14.8525 30.4683 14.8524 31.093 14.2874L30.2546 13.3603L29.4162 12.4332C29.7434 12.1373 30.2349 12.1372 30.5623 12.4332L29.7239 13.3603Z" fill="#171717" fill-opacity="0.02" mask="url(#path-9-inside-2_736_153)"/>
<rect x="25.8232" y="32.9167" width="10" height="2.5" rx="1.25" fill="#6BB170"/>
</g>
<defs>
<filter id="filter0_dd_736_153" x="-4.17676" y="-0.833313" width="70" height="70" filterUnits="userSpaceOnUse" color-interpolation-filters="sRGB">
<feFlood flood-opacity="0" result="BackgroundImageFix"/>
<feColorMatrix in="SourceAlpha" type="matrix" values="0 0 0 0 0 0 0 0 0 0 0 0 0 0 0 0 0 0 127 0" result="hardAlpha"/>
<feOffset dy="5"/>
<feGaussianBlur stdDeviation="7.5"/>
<feComposite in2="hardAlpha" operator="out"/>
<feColorMatrix type="matrix" values="0 0 0 0 0 0 0 0 0 0 0 0 0 0 0 0 0 0 0.16 0"/>
<feBlend mode="normal" in2="BackgroundImageFix" result="effect1_dropShadow_736_153"/>
<feColorMatrix in="SourceAlpha" type="matrix" values="0 0 0 0 0 0 0 0 0 0 0 0 0 0 0 0 0 0 127 0" result="hardAlpha"/>
<feOffset/>
<feGaussianBlur stdDeviation="1.25"/>
<feComposite in2="hardAlpha" operator="out"/>
<feColorMatrix type="matrix" values="0 0 0 0 0 0 0 0 0 0 0 0 0 0 0 0 0 0 0.08 0"/>
<feBlend mode="normal" in2="effect1_dropShadow_736_153" result="effect2_dropShadow_736_153"/>
<feBlend mode="normal" in="SourceGraphic" in2="effect2_dropShadow_736_153" result="shape"/>
</filter>
<linearGradient id="paint0_linear_736_153" x1="27.4901" y1="12.5031" x2="29.0245" y2="17.5631" gradientUnits="userSpaceOnUse">
<stop stop-color="#E2F1DE"/>
<stop offset="1" stop-color="#B8DDA2"/>
</linearGradient>
<linearGradient id="paint1_linear_736_153" x1="30.8445" y1="12.5196" x2="44.1152" y2="40.6563" gradientUnits="userSpaceOnUse">
<stop stop-color="#E2F1DE"/>
<stop offset="1" stop-color="#B8DDA2"/>
</linearGradient>
<linearGradient id="paint2_linear_736_153" x1="30.8444" y1="18.6415" x2="39.9966" y2="42.8007" gradientUnits="userSpaceOnUse">
<stop stop-color="#E2F1DE"/>
<stop offset="1" stop-color="#B8DDA2"/>
</linearGradient>
<linearGradient id="paint3_linear_736_153" x1="29.9897" y1="12.5031" x2="30.9193" y2="17.8673" gradientUnits="userSpaceOnUse">
<stop stop-color="#E2F1DE"/>
<stop offset="1" stop-color="#B8DDA2"/>
</linearGradient>
</defs>
</svg>
