<svg width="24" height="24" viewBox="0 0 24 24" fill="none" xmlns="http://www.w3.org/2000/svg">
<path fill-rule="evenodd" clip-rule="evenodd" d="M18.4995 18.0003C18.7757 18.0003 18.9995 18.2242 18.9995 18.5003V19.5003C18.9994 19.7763 18.7756 20.0003 18.4995 20.0003H5.49951C5.22365 20.0001 4.99966 19.7762 4.99951 19.5003V18.5003C4.99951 18.2243 5.22356 18.0005 5.49951 18.0003H18.4995ZM14.6069 5.35381C14.8022 5.15861 15.1187 5.15857 15.314 5.35381L17.4351 7.47491C17.6303 7.67015 17.6303 7.98667 17.4351 8.18194L8.72021 16.8968C8.64004 16.977 8.53503 17.0277 8.42236 17.0403L6.03564 17.305C5.71719 17.3404 5.44754 17.0717 5.48291 16.7532L5.74854 14.3665C5.76112 14.2538 5.81187 14.1489 5.89209 14.0687L14.6069 5.35381Z" fill="#171717"/>
</svg>
