<svg width="64" height="64" viewBox="0 0 64 64" fill="none" xmlns="http://www.w3.org/2000/svg">
<path d="M28.8789 4.5C30.3974 4.5 31.7634 5.15439 32.7109 6.19531C32.7396 6.2265 32.7888 6.22664 32.8174 6.19531C33.7648 5.154 35.1307 4.50013 36.6494 4.5H37.9443C40.0899 4.5 41.8298 6.23922 41.8301 8.38477C41.8301 10.5305 40.0901 12.2705 37.9443 12.2705H27.584C25.4386 12.2702 23.6994 10.5312 23.6992 8.38574C23.6992 6.24018 25.4385 4.5003 27.584 4.5H28.8789Z" fill="url(#paint0_linear_757_1218)"/>
<path d="M27.2847 12.6617C27.2847 12.0184 27.8099 11.4988 28.4532 11.5052C31.6553 11.537 33.8808 11.55 37.1398 11.5094C37.7802 11.5014 38.3045 12.0176 38.3045 12.658C38.3045 13.2923 37.7898 13.806 37.1555 13.8065C33.9284 13.8086 31.7069 13.8383 28.4302 13.8164C27.7959 13.8121 27.2847 13.296 27.2847 12.6617Z" fill="#B9B9B9"/>
<path d="M57.5734 45.2523C57.5734 58.0682 46.4796 59.1755 32.7947 59.1755C19.1098 59.1755 8.01601 58.0682 8.01601 45.2523C8.01601 32.4364 6.50687 12.7649 32.7947 12.7649C59.0825 12.7649 57.5734 32.4364 57.5734 45.2523Z" fill="url(#paint1_linear_757_1218)"/>
<path d="M32.7949 12.8098C39.3613 12.8098 44.1879 14.039 47.7344 16.0784C51.28 18.1174 53.5501 20.9687 55.001 24.2209C57.9047 30.7297 57.5283 38.8395 57.5283 45.2522C57.5283 48.4496 56.8358 50.9129 55.5879 52.8098C54.3402 54.7063 52.5342 56.0411 50.2988 56.9778C45.8245 58.8525 39.6386 59.1301 32.7949 59.1301C25.9512 59.1301 19.7654 58.8525 15.291 56.9778C13.0553 56.041 11.2488 54.7066 10.001 52.8098C8.7531 50.9129 8.06152 48.4496 8.06152 45.2522C8.06152 38.8395 7.68511 30.7297 10.5889 24.2209C12.0398 20.9687 14.3097 18.1174 17.8555 16.0784C21.4019 14.039 26.2284 12.8098 32.7949 12.8098Z" stroke="#171717" stroke-opacity="0.02" stroke-width="0.0907802"/>
<path d="M32.856 41.3174C34.1719 41.3175 35.2388 42.3843 35.2388 43.7002C35.2386 45.016 34.1718 46.0829 32.856 46.083C31.5401 46.083 30.4733 45.0161 30.4731 43.7002C30.4731 42.3842 31.54 41.3174 32.856 41.3174ZM33.1196 27.0205C34.2899 27.0206 35.2388 27.9693 35.2388 29.1396V37.8359C35.2388 39.0063 34.2899 39.9559 33.1196 39.9561H32.5923C31.4219 39.9561 30.4731 39.0063 30.4731 37.8359V29.1396C30.4732 27.9693 31.4219 27.0205 32.5923 27.0205H33.1196Z" fill="#9E9FA0"/>
<defs>
<linearGradient id="paint0_linear_757_1218" x1="32.7646" y1="4.50489" x2="33.8787" y2="12.6546" gradientUnits="userSpaceOnUse">
<stop stop-color="#D8D9DA"/>
<stop offset="1" stop-color="#CBCCCD"/>
</linearGradient>
<linearGradient id="paint1_linear_757_1218" x1="28.9801" y1="13.4007" x2="58.6676" y2="51.5894" gradientUnits="userSpaceOnUse">
<stop stop-color="#E5E6E6"/>
<stop offset="1" stop-color="#B1B2B4"/>
</linearGradient>
</defs>
</svg>
