<svg width="24" height="24" viewBox="0 0 24 24" fill="none" xmlns="http://www.w3.org/2000/svg">
<rect x="4.75" y="4.75" width="14.5" height="14.5" rx="7.25" stroke="#BBBBBB" stroke-width="1.5"/>
<path d="M11.0957 11.0469C11.0957 10.4881 11.5487 10.0352 12.1074 10.0352C12.6662 10.0352 13.1191 10.4881 13.1191 11.0469V15.4473C13.1191 16.006 12.6662 16.459 12.1074 16.459C11.5487 16.459 11.0957 16.006 11.0957 15.4473V11.0469ZM12.1074 9.06445C11.9069 9.06445 11.7201 9.01888 11.5469 8.92773C11.3783 8.83203 11.2438 8.70671 11.1436 8.55176C11.0479 8.39225 11 8.22135 11 8.03906C11 7.85221 11.0479 7.67904 11.1436 7.51953C11.2438 7.36003 11.3783 7.2347 11.5469 7.14355C11.7201 7.04785 11.9069 7 12.1074 7C12.3034 7 12.4857 7.04785 12.6543 7.14355C12.8229 7.2347 12.9551 7.36003 13.0508 7.51953C13.151 7.67904 13.2012 7.85221 13.2012 8.03906C13.2012 8.22135 13.151 8.39225 13.0508 8.55176C12.9551 8.70671 12.8229 8.83203 12.6543 8.92773C12.4857 9.01888 12.3034 9.06445 12.1074 9.06445Z" fill="#BBBBBB"/>
</svg>
