<svg width="136" height="136" viewBox="0 0 136 136" fill="none" xmlns="http://www.w3.org/2000/svg">
<g filter="url(#filter0_dd_823_659)">
<path d="M24 60C24 35.6995 43.6995 16 68 16V16C92.3005 16 112 35.6995 112 60V60C112 84.3005 92.3005 104 68 104V104C43.6995 104 24 84.3005 24 60V60Z" fill="white"/>
<path d="M84 60C84 68.8366 76.8366 76 68 76M84 60C84 51.1634 76.8366 44 68 44M84 60H88M68 76C59.1634 76 52 68.8366 52 60M68 76V80M52 60C52 51.1634 59.1634 44 68 44M52 60H48M68 44V40M74 60C74 63.3137 71.3137 66 68 66C64.6863 66 62 63.3137 62 60C62 56.6863 64.6863 54 68 54C71.3137 54 74 56.6863 74 60Z" stroke="#111111" stroke-width="4" stroke-linecap="round" stroke-linejoin="round"/>
</g>
<defs>
<filter id="filter0_dd_823_659" x="0" y="0" width="136" height="136" filterUnits="userSpaceOnUse" color-interpolation-filters="sRGB">
<feFlood flood-opacity="0" result="BackgroundImageFix"/>
<feColorMatrix in="SourceAlpha" type="matrix" values="0 0 0 0 0 0 0 0 0 0 0 0 0 0 0 0 0 0 127 0" result="hardAlpha"/>
<feOffset dy="8"/>
<feGaussianBlur stdDeviation="12"/>
<feComposite in2="hardAlpha" operator="out"/>
<feColorMatrix type="matrix" values="0 0 0 0 0 0 0 0 0 0 0 0 0 0 0 0 0 0 0.16 0"/>
<feBlend mode="normal" in2="BackgroundImageFix" result="effect1_dropShadow_823_659"/>
<feColorMatrix in="SourceAlpha" type="matrix" values="0 0 0 0 0 0 0 0 0 0 0 0 0 0 0 0 0 0 127 0" result="hardAlpha"/>
<feOffset/>
<feGaussianBlur stdDeviation="2"/>
<feComposite in2="hardAlpha" operator="out"/>
<feColorMatrix type="matrix" values="0 0 0 0 0 0 0 0 0 0 0 0 0 0 0 0 0 0 0.08 0"/>
<feBlend mode="normal" in2="effect1_dropShadow_823_659" result="effect2_dropShadow_823_659"/>
<feBlend mode="normal" in="SourceGraphic" in2="effect2_dropShadow_823_659" result="shape"/>
</filter>
</defs>
</svg>
