<svg width="124" height="131" viewBox="0 0 124 131" fill="none" xmlns="http://www.w3.org/2000/svg">
<g filter="url(#filter0_dd_840_484)">
<mask id="path-1-outside-1_840_484" maskUnits="userSpaceOnUse" x="29.0049" y="20" width="65" height="71" fill="black">
<rect fill="white" x="29.0049" y="20" width="65" height="71"/>
<path d="M54.9772 25C56.6968 25.0001 58.2639 25.6522 59.446 26.7217C59.7433 26.9904 60.2091 26.9904 60.5065 26.7217C61.6886 25.6522 63.2557 25.0001 64.9752 25H66.6422C69.403 25.0001 71.6411 27.2383 71.6413 29.999C71.6413 32.76 69.4031 34.9989 66.6422 34.999H66.6403V35.8242C89.7746 38.2004 88.3473 57.6349 88.3473 70.5781C88.3473 84.3832 76.4097 85.5762 61.6842 85.5762C46.9589 85.5762 35.0221 84.3831 35.0221 70.5781C35.0221 58.2927 33.7358 40.1589 53.3883 36.3154C53.3392 36.2227 53.3092 36.1179 53.3092 36.0059V34.998C50.5488 34.9974 48.3112 32.7596 48.3112 29.999C48.3114 27.2382 50.5494 25.0001 53.3102 25H54.9772Z"/>
</mask>
<path d="M54.9772 25C56.6968 25.0001 58.2639 25.6522 59.446 26.7217C59.7433 26.9904 60.2091 26.9904 60.5065 26.7217C61.6886 25.6522 63.2557 25.0001 64.9752 25H66.6422C69.403 25.0001 71.6411 27.2383 71.6413 29.999C71.6413 32.76 69.4031 34.9989 66.6422 34.999H66.6403V35.8242C89.7746 38.2004 88.3473 57.6349 88.3473 70.5781C88.3473 84.3832 76.4097 85.5762 61.6842 85.5762C46.9589 85.5762 35.0221 84.3831 35.0221 70.5781C35.0221 58.2927 33.7358 40.1589 53.3883 36.3154C53.3392 36.2227 53.3092 36.1179 53.3092 36.0059V34.998C50.5488 34.9974 48.3112 32.7596 48.3112 29.999C48.3114 27.2382 50.5494 25.0001 53.3102 25H54.9772Z" fill="url(#paint0_linear_840_484)"/>
<path d="M54.9772 25L54.9774 20H54.9772V25ZM59.446 26.7217L56.0914 30.4294L56.0934 30.4312L59.446 26.7217ZM60.5065 26.7217L63.859 30.4312L63.861 30.4294L60.5065 26.7217ZM64.9752 25V20H64.975L64.9752 25ZM66.6422 25L66.6425 20H66.6422V25ZM71.6413 29.999H76.6413V29.9987L71.6413 29.999ZM66.6422 34.999V39.999H66.6425L66.6422 34.999ZM66.6403 34.999V29.999H61.6403V34.999H66.6403ZM66.6403 35.8242H61.6403V40.337L66.1294 40.7981L66.6403 35.8242ZM88.3473 70.5781L83.3473 70.5781V70.5781H88.3473ZM61.6842 85.5762L61.6842 90.5762H61.6842V85.5762ZM35.0221 70.5781H40.0221V70.5781L35.0221 70.5781ZM53.3883 36.3154L54.348 41.2225L60.9592 39.9295L57.8073 33.976L53.3883 36.3154ZM53.3092 34.998H58.3092V29.9992L53.3104 29.998L53.3092 34.998ZM48.3112 29.999L43.3112 29.9987V29.999H48.3112ZM53.3102 25V20H53.31L53.3102 25ZM54.9772 25L54.977 30C55.4076 30 55.7914 30.1579 56.0914 30.4294L59.446 26.7217L62.8005 23.0139C60.7364 21.1466 57.986 20.0001 54.9774 20L54.9772 25ZM59.446 26.7217L56.0934 30.4312C58.2946 32.4206 61.6578 32.4206 63.859 30.4312L60.5065 26.7217L57.154 23.0122C58.7604 21.5603 61.192 21.5602 62.7985 23.0122L59.446 26.7217ZM60.5065 26.7217L63.861 30.4294C64.1611 30.1579 64.5449 30 64.9755 30L64.9752 25L64.975 20C61.9664 20.0001 59.216 21.1466 57.152 23.0139L60.5065 26.7217ZM64.9752 25V30H66.6422V25V20H64.9752V25ZM66.6422 25L66.642 30L66.6413 29.9994L71.6413 29.999L76.6413 29.9987C76.6409 24.4769 72.1646 20.0003 66.6425 20L66.6422 25ZM71.6413 29.999H66.6413H66.642L66.6422 34.999L66.6425 39.999C72.1657 39.9988 76.6413 35.5203 76.6413 29.999H71.6413ZM66.6422 34.999V29.999H66.6403V34.999V39.999H66.6422V34.999ZM66.6403 34.999H61.6403V35.8242H66.6403H71.6403V34.999H66.6403ZM66.6403 35.8242L66.1294 40.7981C71.2127 41.3202 74.5371 42.7323 76.7765 44.4253C79.0004 46.1066 80.4846 48.3141 81.4864 50.991C83.6239 56.7025 83.3473 63.6553 83.3473 70.5781L88.3473 70.5781L93.3473 70.5781C93.3473 64.5577 93.7844 55.3216 90.852 47.486C89.3188 43.3893 86.8222 39.4838 82.8072 36.4484C78.8076 33.4246 73.6351 31.5164 67.1512 30.8504L66.6403 35.8242ZM88.3473 70.5781H83.3473C83.3473 73.3044 82.7639 74.9491 82.0735 75.9997C81.3903 77.0394 80.3239 77.9217 78.6038 78.6432C74.8496 80.2179 69.1928 80.5762 61.6842 80.5762V85.5762V90.5762C68.9011 90.5762 76.5759 90.3379 82.4718 87.8649C85.5768 86.5625 88.4152 84.5582 90.4305 81.4915C92.4386 78.4357 93.3473 74.7544 93.3473 70.5781H88.3473ZM61.6842 85.5762L61.6842 80.5762C54.1757 80.5762 48.5192 80.2179 44.7653 78.6432C43.0453 77.9218 41.9791 77.0394 41.2959 75.9998C40.6056 74.9492 40.0221 73.3045 40.0221 70.5781H35.0221H30.0221C30.0221 74.7543 30.9308 78.4356 32.9387 81.4913C34.9539 84.5581 37.7922 86.5624 40.8971 87.8648C46.7929 90.3379 54.4675 90.5762 61.6842 90.5762L61.6842 85.5762ZM35.0221 70.5781L40.0221 70.5781C40.0221 64.0298 39.7636 57.4316 41.5893 51.8307C42.4547 49.1759 43.7373 46.9687 45.6136 45.2418C47.4775 43.5265 50.199 42.0339 54.348 41.2225L53.3883 36.3154L52.4287 31.4084C46.7514 32.5187 42.264 34.7341 38.8417 37.8838C35.432 41.0219 33.3513 44.8367 32.0817 48.7314C29.6375 56.2297 30.0221 64.841 30.0221 70.5781L35.0221 70.5781ZM53.3883 36.3154L57.8073 33.976C58.0934 34.5165 58.3092 35.2088 58.3092 36.0059H53.3092H48.3092C48.3092 37.0271 48.5851 37.9289 48.9694 38.6549L53.3883 36.3154ZM53.3092 36.0059H58.3092V34.998H53.3092H48.3092V36.0059H53.3092ZM53.3092 34.998L53.3104 29.998C53.3039 29.998 53.3027 29.9975 53.3052 29.998C53.3074 29.9984 53.31 29.9992 53.3121 30.0001C53.3158 30.0017 53.3144 30.0018 53.3108 29.9983C53.3073 29.9947 53.3075 29.9933 53.309 29.9971C53.31 29.9993 53.3108 30.0019 53.3112 30.0041C53.3118 30.0067 53.3112 30.0055 53.3112 29.999H48.3112H43.3112C43.3112 35.521 47.787 39.9967 53.308 39.998L53.3092 34.998ZM48.3112 29.999L53.3112 29.9993C53.3112 29.9928 53.3118 29.9916 53.3112 29.9942C53.3108 29.9964 53.31 29.999 53.3091 30.0011C53.3075 30.0048 53.3074 30.0034 53.311 29.9998C53.3146 29.9962 53.316 29.9963 53.3123 29.9979C53.3101 29.9988 53.3076 29.9996 53.3053 30.0001C53.3028 30.0006 53.3039 30 53.3104 30L53.3102 25L53.31 20C47.7879 20.0003 43.3115 24.4768 43.3112 29.9987L48.3112 29.999ZM53.3102 25V30H54.9772V25V20H53.3102V25Z" fill="white" mask="url(#path-1-outside-1_840_484)"/>
<path d="M88.3472 70.5784C88.3472 84.3835 76.4098 85.5762 61.6844 85.5762C46.9589 85.5762 35.0216 84.3835 35.0216 70.5784C35.0216 56.7732 33.3977 35.5835 61.6844 35.5835C89.971 35.5835 88.3472 56.7732 88.3472 70.5784Z" fill="url(#paint1_linear_840_484)"/>
<rect x="56.6421" y="33.3321" width="3.33285" height="9.99854" rx="1.66642" transform="rotate(30 56.6421 33.3321)" fill="#171717" fill-opacity="0.1"/>
<rect width="3.33285" height="9.99854" rx="1.66642" transform="matrix(-0.866025 0.5 0.5 0.866025 64.5288 33.3321)" fill="#171717" fill-opacity="0.1"/>
<path d="M53.3091 34.0069C53.3091 33.6356 53.614 33.3359 53.9853 33.3404C58.5098 33.3954 61.3545 33.4202 65.9604 33.3439C66.3332 33.3377 66.6405 33.638 66.6405 34.0108V35.9972C66.6405 36.3658 66.3399 36.6644 65.9713 36.6642C61.4233 36.6618 58.5908 36.7179 53.9694 36.6721C53.6043 36.6685 53.3091 36.3712 53.3091 36.0061V34.0069Z" fill="#554C3E"/>
<path d="M48.311 29.9993C48.311 27.2383 50.5493 25.0001 53.3103 25.0001H54.9767C58.6581 25.0001 61.6424 27.9844 61.6424 31.6658V34.9986H53.3103C50.5493 34.9986 48.311 32.7603 48.311 29.9993Z" fill="url(#paint2_linear_840_484)"/>
<path d="M54.9771 25.0001C56.6966 25.0001 58.2634 25.6521 59.4454 26.7215C59.7429 26.9906 60.2093 26.9906 60.5067 26.7215C61.6888 25.6521 63.2555 25.0001 64.9751 25.0001H66.6421C69.4029 25.0002 71.6409 27.2383 71.6411 29.9991C71.6411 32.76 69.403 34.999 66.6421 34.9991H53.3101C50.5492 34.999 48.311 32.76 48.311 29.9991C48.3112 27.2383 50.5492 25.0002 53.3101 25.0001H54.9771Z" fill="url(#paint3_linear_840_484)"/>
<rect x="48.311" y="63.3277" width="26.6628" height="6.66569" rx="3.33285" fill="#A97D40"/>
</g>
<defs>
<filter id="filter0_dd_840_484" x="-8.35791" y="-3.33771" width="140" height="140" filterUnits="userSpaceOnUse" color-interpolation-filters="sRGB">
<feFlood flood-opacity="0" result="BackgroundImageFix"/>
<feColorMatrix in="SourceAlpha" type="matrix" values="0 0 0 0 0 0 0 0 0 0 0 0 0 0 0 0 0 0 127 0" result="hardAlpha"/>
<feOffset dy="10"/>
<feGaussianBlur stdDeviation="15"/>
<feComposite in2="hardAlpha" operator="out"/>
<feColorMatrix type="matrix" values="0 0 0 0 0 0 0 0 0 0 0 0 0 0 0 0 0 0 0.16 0"/>
<feBlend mode="normal" in2="BackgroundImageFix" result="effect1_dropShadow_840_484"/>
<feColorMatrix in="SourceAlpha" type="matrix" values="0 0 0 0 0 0 0 0 0 0 0 0 0 0 0 0 0 0 127 0" result="hardAlpha"/>
<feOffset/>
<feGaussianBlur stdDeviation="2.5"/>
<feComposite in2="hardAlpha" operator="out"/>
<feColorMatrix type="matrix" values="0 0 0 0 0 0 0 0 0 0 0 0 0 0 0 0 0 0 0.08 0"/>
<feBlend mode="normal" in2="effect1_dropShadow_840_484" result="effect2_dropShadow_840_484"/>
<feBlend mode="normal" in="SourceGraphic" in2="effect2_dropShadow_840_484" result="shape"/>
</filter>
<linearGradient id="paint0_linear_840_484" x1="61.6847" y1="25.0381" x2="87.0643" y2="80.328" gradientUnits="userSpaceOnUse">
<stop stop-color="#EEE2C2"/>
<stop offset="1" stop-color="#EED573"/>
</linearGradient>
<linearGradient id="paint1_linear_840_484" x1="61.6844" y1="35.6149" x2="79.986" y2="83.9263" gradientUnits="userSpaceOnUse">
<stop stop-color="#EEE2C2"/>
<stop offset="1" stop-color="#EED573"/>
</linearGradient>
<linearGradient id="paint2_linear_840_484" x1="54.9767" y1="25.0063" x2="58.0452" y2="35.1247" gradientUnits="userSpaceOnUse">
<stop stop-color="#E2F1DE"/>
<stop offset="1" stop-color="#B8DDA2"/>
</linearGradient>
<linearGradient id="paint3_linear_840_484" x1="59.9761" y1="25.0063" x2="61.8351" y2="35.7336" gradientUnits="userSpaceOnUse">
<stop stop-color="#EEE2C2"/>
<stop offset="1" stop-color="#EED573"/>
</linearGradient>
</defs>
</svg>
