<svg width="24" height="24" viewBox="0 0 24 24" fill="none" xmlns="http://www.w3.org/2000/svg">
<g clip-path="url(#clip0_750_395)">
<path d="M5.12065 5.84957C7.85432 3.1159 12.2865 3.1159 15.0201 5.84957C17.5137 8.34308 17.7308 12.2484 15.6755 14.9902L19.0563 18.371C19.3489 18.6639 19.3491 19.1389 19.0563 19.4317C18.7635 19.7245 18.2886 19.7243 17.9957 19.4317L14.6528 16.0888C11.9028 18.4761 7.73541 18.3638 5.12065 15.7491C2.38698 13.0154 2.38698 8.58324 5.12065 5.84957ZM6.18131 6.91023C4.03342 9.05811 4.03342 12.5405 6.18131 14.6884C8.32919 16.8363 11.8116 16.8363 13.9595 14.6884C13.9622 14.6856 13.9643 14.6822 13.9671 14.6794C14.0023 14.6085 14.0474 14.5411 14.1066 14.4819C14.1507 14.4378 14.1997 14.4016 14.2509 14.3708C16.101 12.2099 16.0048 8.95559 13.9595 6.91023C11.8116 4.76235 8.32919 4.76235 6.18131 6.91023Z" fill="#171717"/>
</g>
<defs>
<clipPath id="clip0_750_395">
<rect width="24" height="24" fill="white"/>
</clipPath>
</defs>
</svg>
