<svg width="134" height="134" viewBox="0 0 134 134" fill="none" xmlns="http://www.w3.org/2000/svg">
<g filter="url(#filter0_dd_840_509)">
<path d="M101.5 57C101.5 76.0538 86.0538 91.5 67 91.5C47.9462 91.5 32.5 76.0538 32.5 57C32.5 37.9462 47.9462 22.5 67 22.5H68.0352L101.5 55.9648V57Z" fill="url(#paint0_linear_840_509)" stroke="#111111" stroke-width="5"/>
<path d="M67.001 34.5999C67.4985 34.6 67.992 34.6178 68.4814 34.6497C71.6125 44.5613 79.4382 52.3856 89.3496 55.5169C89.3817 56.0072 89.4004 56.502 89.4004 57.0003C89.4002 69.3712 79.3718 79.3995 67.001 79.3997C54.6299 79.3997 44.6008 69.3713 44.6006 57.0003C44.6006 44.6292 54.6298 34.5999 67.001 34.5999Z" fill="url(#paint1_linear_840_509)"/>
<path d="M99 57C81.3269 57 67 42.6731 67 25L99 57Z" fill="#171717" fill-opacity="0.2"/>
<path d="M76.6004 65C76.6004 69.4183 72.3023 73 67.0004 73C61.6985 73 57.4004 69.4183 57.4004 65" stroke="#171717" stroke-width="3.2" stroke-linecap="round"/>
</g>
<defs>
<filter id="filter0_dd_840_509" x="-3" y="-2.99997" width="140" height="140" filterUnits="userSpaceOnUse" color-interpolation-filters="sRGB">
<feFlood flood-opacity="0" result="BackgroundImageFix"/>
<feColorMatrix in="SourceAlpha" type="matrix" values="0 0 0 0 0 0 0 0 0 0 0 0 0 0 0 0 0 0 127 0" result="hardAlpha"/>
<feOffset dy="10"/>
<feGaussianBlur stdDeviation="15"/>
<feComposite in2="hardAlpha" operator="out"/>
<feColorMatrix type="matrix" values="0 0 0 0 0 0 0 0 0 0 0 0 0 0 0 0 0 0 0.16 0"/>
<feBlend mode="normal" in2="BackgroundImageFix" result="effect1_dropShadow_840_509"/>
<feColorMatrix in="SourceAlpha" type="matrix" values="0 0 0 0 0 0 0 0 0 0 0 0 0 0 0 0 0 0 127 0" result="hardAlpha"/>
<feOffset/>
<feGaussianBlur stdDeviation="2.5"/>
<feComposite in2="hardAlpha" operator="out"/>
<feColorMatrix type="matrix" values="0 0 0 0 0 0 0 0 0 0 0 0 0 0 0 0 0 0 0.08 0"/>
<feBlend mode="normal" in2="effect1_dropShadow_840_509" result="effect2_dropShadow_840_509"/>
<feBlend mode="normal" in="SourceGraphic" in2="effect2_dropShadow_840_509" result="shape"/>
</filter>
<linearGradient id="paint0_linear_840_509" x1="67" y1="25" x2="86.2" y2="82.6" gradientUnits="userSpaceOnUse">
<stop stop-color="#1BC4C4"/>
<stop offset="1" stop-color="#119595"/>
</linearGradient>
<linearGradient id="paint1_linear_840_509" x1="54.2005" y1="31.4" x2="89.4004" y2="84.1997" gradientUnits="userSpaceOnUse">
<stop stop-color="#FBF9F9"/>
<stop offset="1" stop-color="#BEF7F2"/>
</linearGradient>
</defs>
</svg>
