<svg width="67" height="67" viewBox="0 0 67 67" fill="none" xmlns="http://www.w3.org/2000/svg">
<g filter="url(#filter0_dd_768_333)">
<path d="M50.75 28.5C50.75 38.0269 43.0269 45.75 33.5 45.75C23.9731 45.75 16.25 38.0269 16.25 28.5C16.25 18.9731 23.9731 11.25 33.5 11.25H34.0176L50.75 27.9824V28.5Z" fill="url(#paint0_linear_768_333)" stroke="white" stroke-width="2.5"/>
<path d="M33.5005 17.3C33.7493 17.3 33.996 17.3104 34.2407 17.3264C35.8063 22.2807 39.7182 26.192 44.6724 27.758C44.6884 28.0033 44.7007 28.2508 44.7007 28.5002C44.7006 34.6856 39.6859 39.7003 33.5005 39.7004C27.315 39.7004 22.3004 34.6857 22.3003 28.5002C22.3003 22.3146 27.3149 17.3 33.5005 17.3Z" fill="url(#paint1_linear_768_333)"/>
<path d="M49.5 28.5C40.6634 28.5 33.5 21.3366 33.5 12.5L49.5 28.5Z" fill="#171717" fill-opacity="0.2"/>
<path d="M38.3002 32.5C38.3002 34.7091 36.1512 36.5 33.5002 36.5C30.8492 36.5 28.7002 34.7091 28.7002 32.5" stroke="#171717" stroke-width="1.6" stroke-linecap="round"/>
</g>
<defs>
<filter id="filter0_dd_768_333" x="-1.5" y="-1.5" width="70" height="70" filterUnits="userSpaceOnUse" color-interpolation-filters="sRGB">
<feFlood flood-opacity="0" result="BackgroundImageFix"/>
<feColorMatrix in="SourceAlpha" type="matrix" values="0 0 0 0 0 0 0 0 0 0 0 0 0 0 0 0 0 0 127 0" result="hardAlpha"/>
<feOffset dy="5"/>
<feGaussianBlur stdDeviation="7.5"/>
<feComposite in2="hardAlpha" operator="out"/>
<feColorMatrix type="matrix" values="0 0 0 0 0 0 0 0 0 0 0 0 0 0 0 0 0 0 0.16 0"/>
<feBlend mode="normal" in2="BackgroundImageFix" result="effect1_dropShadow_768_333"/>
<feColorMatrix in="SourceAlpha" type="matrix" values="0 0 0 0 0 0 0 0 0 0 0 0 0 0 0 0 0 0 127 0" result="hardAlpha"/>
<feOffset/>
<feGaussianBlur stdDeviation="1.25"/>
<feComposite in2="hardAlpha" operator="out"/>
<feColorMatrix type="matrix" values="0 0 0 0 0 0 0 0 0 0 0 0 0 0 0 0 0 0 0.08 0"/>
<feBlend mode="normal" in2="effect1_dropShadow_768_333" result="effect2_dropShadow_768_333"/>
<feBlend mode="normal" in="SourceGraphic" in2="effect2_dropShadow_768_333" result="shape"/>
</filter>
<linearGradient id="paint0_linear_768_333" x1="33.5" y1="12.5" x2="43.1" y2="41.3" gradientUnits="userSpaceOnUse">
<stop stop-color="#1BC4C4"/>
<stop offset="1" stop-color="#119595"/>
</linearGradient>
<linearGradient id="paint1_linear_768_333" x1="27.1004" y1="15.7" x2="44.7007" y2="42.1004" gradientUnits="userSpaceOnUse">
<stop stop-color="#FBF9F9"/>
<stop offset="1" stop-color="#BEF7F2"/>
</linearGradient>
</defs>
</svg>
