<svg width="124" height="133" viewBox="0 0 124 133" fill="none" xmlns="http://www.w3.org/2000/svg">
<g filter="url(#filter0_dd_823_642)">
<path d="M48.313 30C48.313 27.2386 50.5516 25 53.313 25H54.9797C58.6616 25 61.6463 27.9848 61.6463 31.6667V35H53.313C50.5516 35 48.313 32.7614 48.313 30Z" fill="url(#paint0_linear_823_642)"/>
<mask id="path-2-outside-1_823_642" maskUnits="userSpaceOnUse" x="29.0049" y="20" width="65" height="73" fill="black">
<rect fill="white" x="29.0049" y="20" width="65" height="73"/>
<path d="M54.9792 25C56.6988 25.0001 58.2658 25.6523 59.4479 26.7217C59.7453 26.9904 60.2111 26.9904 60.5085 26.7217C61.6907 25.6521 63.2583 25.0001 64.9782 25H66.6452C69.4066 25 71.6452 27.2386 71.6452 30C71.6452 32.7614 69.4066 35 66.6452 35H66.6432C66.6436 35.0149 66.6452 35.0299 66.6452 35.0449V36.625C66.6451 36.9338 66.5593 37.2217 66.4127 37.4697C89.7922 39.7398 88.3551 59.2637 88.3551 72.252C88.3549 86.0587 76.4156 87.252 61.6881 87.252C46.9608 87.2519 35.0223 86.0586 35.0221 72.252C35.0221 59.8666 33.7149 41.5379 53.8659 37.8945C53.5267 37.5901 53.3123 37.1493 53.3122 36.6582V35.0312C53.3122 35.0209 53.3139 35.0103 53.3141 35H53.3122C50.5507 35 48.3122 32.7614 48.3122 30C48.3122 27.2386 50.5507 25 53.3122 25H54.9792Z"/>
</mask>
<path d="M54.9792 25C56.6988 25.0001 58.2658 25.6523 59.4479 26.7217C59.7453 26.9904 60.2111 26.9904 60.5085 26.7217C61.6907 25.6521 63.2583 25.0001 64.9782 25H66.6452C69.4066 25 71.6452 27.2386 71.6452 30C71.6452 32.7614 69.4066 35 66.6452 35H66.6432C66.6436 35.0149 66.6452 35.0299 66.6452 35.0449V36.625C66.6451 36.9338 66.5593 37.2217 66.4127 37.4697C89.7922 39.7398 88.3551 59.2637 88.3551 72.252C88.3549 86.0587 76.4156 87.252 61.6881 87.252C46.9608 87.2519 35.0223 86.0586 35.0221 72.252C35.0221 59.8666 33.7149 41.5379 53.8659 37.8945C53.5267 37.5901 53.3123 37.1493 53.3122 36.6582V35.0312C53.3122 35.0209 53.3139 35.0103 53.3141 35H53.3122C50.5507 35 48.3122 32.7614 48.3122 30C48.3122 27.2386 50.5507 25 53.3122 25H54.9792Z" fill="url(#paint1_linear_823_642)"/>
<path d="M54.9792 25L54.9794 20H54.9792V25ZM59.4479 26.7217L56.0936 30.4296L56.0959 30.4316L59.4479 26.7217ZM60.5085 26.7217L63.8605 30.4316L63.8628 30.4296L60.5085 26.7217ZM64.9782 25V20H64.9779L64.9782 25ZM66.6452 25V20V20V25ZM71.6452 30H76.6452V30L71.6452 30ZM66.6432 35V30H61.5078L61.645 35.1336L66.6432 35ZM66.6452 35.0449H71.6452L71.6452 35.0437L66.6452 35.0449ZM66.6452 36.625L71.6452 36.6257V36.625H66.6452ZM66.4127 37.4697L62.108 34.9263L58.1132 41.6874L65.9295 42.4463L66.4127 37.4697ZM88.3551 72.252L93.3551 72.252V72.252H88.3551ZM61.6881 87.252L61.6881 92.252H61.6881V87.252ZM35.0221 72.252H30.0221V72.252L35.0221 72.252ZM53.8659 37.8945L54.7555 42.8148L64.808 40.9972L57.2057 34.1736L53.8659 37.8945ZM53.3122 36.6582H48.3122V36.6595L53.3122 36.6582ZM53.3141 35L58.3133 35.0908L58.4058 30H53.3141V35ZM53.3122 25V20V20V25ZM54.9792 25L54.9789 30C55.4094 30 55.7932 30.1578 56.0936 30.4296L59.4479 26.7217L62.8022 23.0138C60.7384 21.1467 57.9882 20.0001 54.9794 20L54.9792 25ZM59.4479 26.7217L56.0959 30.4316C58.2969 32.4204 61.6594 32.4204 63.8605 30.4316L60.5085 26.7217L57.1564 23.0117C58.7627 21.5603 61.1936 21.5604 62.7999 23.0117L59.4479 26.7217ZM60.5085 26.7217L63.8628 30.4296C64.1627 30.1582 64.547 30 64.9784 30L64.9782 25L64.9779 20C61.9697 20.0001 59.2188 21.146 57.1541 23.0138L60.5085 26.7217ZM64.9782 25V30H66.6452V25V20H64.9782V25ZM66.6452 25V30V30L71.6452 30L76.6452 30C76.6451 24.4772 72.168 20 66.6452 20V25ZM71.6452 30H66.6452V35V40C72.168 40 76.6452 35.5228 76.6452 30H71.6452ZM66.6452 35V30H66.6432V35V40H66.6452V35ZM66.6432 35L61.645 35.1336C61.6468 35.1995 61.6494 35.2524 61.6509 35.2805C61.6517 35.2949 61.6524 35.3065 61.6527 35.3115C61.6528 35.3139 61.653 35.3165 61.653 35.3165C61.653 35.3172 61.653 35.3161 61.6529 35.3145C61.6526 35.31 61.6507 35.2781 61.649 35.2363C61.6473 35.1928 61.6452 35.1268 61.6452 35.0461L66.6452 35.0449L71.6452 35.0437C71.6451 34.9555 71.6429 34.882 71.6408 34.831C71.6388 34.7817 71.6365 34.7423 71.6358 34.7303C71.6357 34.7291 71.6348 34.714 71.6353 34.7221C71.6354 34.7234 71.6359 34.7313 71.6364 34.7419C71.6375 34.7626 71.6399 34.808 71.6414 34.8664L66.6432 35ZM66.6452 35.0449H61.6452V36.625H66.6452H71.6452V35.0449H66.6452ZM66.6452 36.625L61.6452 36.6243C61.6453 35.9907 61.8245 35.4061 62.108 34.9263L66.4127 37.4697L70.7175 40.0132C71.2941 39.0373 71.645 37.8769 71.6452 36.6257L66.6452 36.625ZM66.4127 37.4697L65.9295 42.4463C71.0788 42.9463 74.4471 44.3514 76.7144 46.0431C78.964 47.7215 80.4624 49.9296 81.4736 52.6077C83.6329 58.3264 83.3551 65.3035 83.3551 72.252H88.3551H93.3551C93.3551 66.2122 93.7959 56.9332 90.8289 49.0753C89.277 44.9652 86.751 41.0549 82.6945 38.0282C78.6558 35.0148 73.4364 33.1282 66.896 32.4931L66.4127 37.4697ZM88.3551 72.252L83.3551 72.2519C83.3551 74.9786 82.7715 76.6236 82.0809 77.6745C81.3975 78.7144 80.3309 79.597 78.6104 80.3187C74.8554 81.8937 69.1977 82.252 61.6881 82.252V87.252V92.252C68.906 92.252 76.5817 92.0136 82.4783 89.5403C85.5836 88.2378 88.4224 86.2333 90.4379 83.1664C92.4462 80.1104 93.3551 76.4287 93.3551 72.252L88.3551 72.252ZM61.6881 87.252L61.6881 82.252C54.1786 82.2519 48.5212 81.8936 44.7665 80.3187C43.0462 79.597 41.9797 78.7145 41.2963 77.6745C40.6057 76.6236 40.0222 74.9786 40.0221 72.2519L35.0221 72.252L30.0221 72.252C30.0222 76.4286 30.931 80.1103 32.9392 83.1662C34.9546 86.2332 37.7932 88.2377 40.8984 89.5402C46.7948 92.0136 54.4703 92.2519 61.6881 92.252L61.6881 87.252ZM35.0221 72.252H40.0221C40.0221 65.6472 39.7607 58.9945 41.6315 53.3741C42.5169 50.7142 43.8286 48.5064 45.7531 46.7856C47.6684 45.073 50.4737 43.5889 54.7555 42.8148L53.8659 37.8945L52.9763 32.9743C47.1825 34.0218 42.5947 36.1951 39.0876 39.3309C35.5898 42.4585 33.45 46.2901 32.1433 50.2159C29.6299 57.767 30.0221 66.4714 30.0221 72.252H35.0221ZM53.8659 37.8945L57.2057 34.1736C57.8696 34.7695 58.3119 35.6588 58.3122 36.6569L53.3122 36.6582L48.3122 36.6595C48.3127 38.6397 49.1837 40.4107 50.526 41.6155L53.8659 37.8945ZM53.3122 36.6582H58.3122V35.0312H53.3122H48.3122V36.6582H53.3122ZM53.3122 35.0312H58.3122C58.3122 35.101 58.3107 35.1628 58.3087 35.2147C58.3068 35.2665 58.3043 35.3109 58.3021 35.3455C58.2998 35.38 58.2976 35.408 58.2962 35.426C58.2948 35.4431 58.2936 35.4564 58.2935 35.4574C58.2935 35.4579 58.2934 35.4583 58.2935 35.4577C58.2935 35.4575 58.2936 35.4563 58.2937 35.455C58.2939 35.4525 58.2944 35.4472 58.295 35.4406C58.2961 35.4277 58.2981 35.4042 58.3002 35.3749C58.3024 35.3453 58.3051 35.3057 58.3075 35.2591C58.3099 35.2123 58.3121 35.1555 58.3133 35.0908L53.3141 35L48.3149 34.9092C48.3171 34.7879 48.3235 34.6919 48.3272 34.6406C48.3292 34.6139 48.331 34.593 48.3318 34.5828C48.3325 34.5755 48.3334 34.565 48.3326 34.5738C48.3323 34.5774 48.3309 34.5933 48.3293 34.6131C48.3276 34.6337 48.3252 34.6643 48.3228 34.7014C48.3182 34.7735 48.3122 34.8891 48.3122 35.0312H53.3122ZM53.3141 35V30H53.3122V35V40H53.3141V35ZM53.3122 35V30H48.3122H43.3122C43.3122 35.5228 47.7893 40 53.3122 40V35ZM48.3122 30H53.3122V30V25V20C47.7893 20 43.3122 24.4772 43.3122 30H48.3122ZM53.3122 25V30H54.9792V25V20H53.3122V25Z" fill="white" mask="url(#path-2-outside-1_823_642)"/>
<path d="M88.355 72.2516C88.355 86.0587 76.4159 87.2516 61.6883 87.2516C46.9607 87.2516 35.0216 86.0587 35.0216 72.2516C35.0216 58.4445 33.3975 37.2516 61.6883 37.2516C89.9791 37.2516 88.355 58.4445 88.355 72.2516Z" fill="url(#paint2_linear_823_642)"/>
<path d="M61.688 38.5016C68.6105 38.5016 73.5819 39.7984 77.1665 41.8619C80.7342 43.9157 83.0166 46.7793 84.4888 50.0826C87.4838 56.8032 87.105 65.2184 87.105 72.2516C87.105 75.5221 86.3991 77.9312 85.2144 79.734C84.0315 81.5339 82.3006 82.8376 80.061 83.777C75.503 85.6888 69.0882 86.0016 61.688 86.0016C54.2881 86.0016 47.8738 85.6886 43.3159 83.777C41.0762 82.8375 39.3445 81.534 38.1616 79.734C36.9769 77.9312 36.272 75.5221 36.272 72.2516C36.272 65.2184 35.8922 56.8031 38.8872 50.0826C40.3594 46.7793 42.6427 43.9158 46.2104 41.8619C49.795 39.7985 54.7658 38.5016 61.688 38.5016Z" stroke="#171717" stroke-opacity="0.02" stroke-width="2.5"/>
<path d="M63.7674 36.3345C63.1591 35.7449 62.2014 35.727 61.5586 36.2789C60.8102 36.9216 60.7858 38.0687 61.4873 38.7623C63.1475 40.404 64.3102 41.7423 65.6099 43.5418C66.1898 44.3446 67.3324 44.5018 68.0838 43.8567C68.7214 43.3092 68.8505 42.3683 68.3654 41.6821C66.8868 39.5904 65.6444 38.1537 63.7674 36.3345Z" fill="#171717" fill-opacity="0.1"/>
<path d="M56.678 35.8019C57.3421 35.3136 58.2634 35.4076 58.8362 36.0005C59.5388 36.7278 59.442 37.9026 58.6525 38.5347C57.0533 39.815 55.9044 40.9102 54.6543 42.3713C53.9923 43.145 52.8053 43.2112 52.0977 42.4788C51.5323 41.8936 51.4641 40.9827 51.9641 40.3406C53.3826 38.5189 54.6523 37.2917 56.678 35.8019Z" fill="#171717" fill-opacity="0.1"/>
<path d="M53.312 35.0308C53.312 34.0984 54.078 33.3476 55.0103 33.3638C58.635 33.4266 61.2485 33.4515 64.9326 33.3744C65.8704 33.3548 66.6453 34.1073 66.6453 35.0453V36.6247C66.6453 37.5469 65.8952 38.2935 64.973 38.2953C61.3018 38.3022 58.6835 38.3594 54.9513 38.319C54.0421 38.3091 53.312 37.567 53.312 36.6577V35.0308Z" fill="#6BB170"/>
<mask id="path-9-inside-2_823_642" fill="white">
<path d="M54.979 25C56.6986 25.0001 58.2652 25.6521 59.4473 26.7215C59.7448 26.9906 60.2112 26.9906 60.5087 26.7214C61.691 25.6519 63.2582 25.0001 64.978 25H66.645C69.4064 25 71.645 27.2386 71.645 30C71.645 32.7614 69.4064 35 66.645 35H53.312C50.5506 35 48.312 32.7614 48.312 30C48.312 27.2386 50.5506 25 53.312 25H54.979Z"/>
</mask>
<path d="M54.979 25C56.6986 25.0001 58.2652 25.6521 59.4473 26.7215C59.7448 26.9906 60.2112 26.9906 60.5087 26.7214C61.691 25.6519 63.2582 25.0001 64.978 25H66.645C69.4064 25 71.645 27.2386 71.645 30C71.645 32.7614 69.4064 35 66.645 35H53.312C50.5506 35 48.312 32.7614 48.312 30C48.312 27.2386 50.5506 25 53.312 25H54.979Z" fill="url(#paint3_linear_823_642)"/>
<path d="M54.979 25L54.9791 22.5H54.979V25ZM64.978 25V22.5H64.9779L64.978 25ZM66.645 25V22.5V22.5V25ZM71.645 30H74.145V30L71.645 30ZM53.312 25V22.5V22.5V25ZM59.4473 26.7215L57.7702 28.5754L59.4473 26.7215ZM54.979 25L54.9789 27.5C56.054 27.5001 57.0289 27.9049 57.7702 28.5754L59.4473 26.7215L61.1245 24.8675C59.5015 23.3993 57.3433 22.5001 54.9791 22.5L54.979 25ZM60.5087 26.7214L62.1859 28.5754C62.9269 27.905 63.9024 27.5001 64.9781 27.5L64.978 25L64.9779 22.5C62.614 22.5001 60.4551 23.3988 58.8316 24.8675L60.5087 26.7214ZM64.978 25V27.5H66.645V25V22.5H64.978V25ZM66.645 25V27.5C68.0257 27.5 69.145 28.6193 69.145 30L71.645 30L74.145 30C74.145 25.8579 70.7872 22.5 66.645 22.5V25ZM71.645 30H69.145C69.145 31.3807 68.0257 32.5 66.645 32.5V35V37.5C70.7872 37.5 74.145 34.1421 74.145 30H71.645ZM66.645 35V32.5H53.312V35V37.5H66.645V35ZM53.312 35V32.5C51.9313 32.5 50.812 31.3807 50.812 30H48.312H45.812C45.812 34.1421 49.1699 37.5 53.312 37.5V35ZM48.312 30H50.812C50.812 28.6193 51.9313 27.5 53.312 27.5V25V22.5C49.1699 22.5 45.812 25.8579 45.812 30H48.312ZM53.312 25V27.5H54.979V25V22.5H53.312V25ZM59.4473 26.7215L57.7702 28.5754C59.0199 29.706 60.9363 29.7058 62.1859 28.5754L60.5087 26.7214L58.8316 24.8675C59.4862 24.2753 60.4697 24.2751 61.1245 24.8675L59.4473 26.7215Z" fill="#171717" fill-opacity="0.02" mask="url(#path-9-inside-2_823_642)"/>
<rect x="51.646" y="65.8333" width="20" height="5" rx="2.5" fill="#6BB170"/>
</g>
<defs>
<filter id="filter0_dd_823_642" x="-8.354" y="-1.66669" width="140" height="140" filterUnits="userSpaceOnUse" color-interpolation-filters="sRGB">
<feFlood flood-opacity="0" result="BackgroundImageFix"/>
<feColorMatrix in="SourceAlpha" type="matrix" values="0 0 0 0 0 0 0 0 0 0 0 0 0 0 0 0 0 0 127 0" result="hardAlpha"/>
<feOffset dy="10"/>
<feGaussianBlur stdDeviation="15"/>
<feComposite in2="hardAlpha" operator="out"/>
<feColorMatrix type="matrix" values="0 0 0 0 0 0 0 0 0 0 0 0 0 0 0 0 0 0 0.16 0"/>
<feBlend mode="normal" in2="BackgroundImageFix" result="effect1_dropShadow_823_642"/>
<feColorMatrix in="SourceAlpha" type="matrix" values="0 0 0 0 0 0 0 0 0 0 0 0 0 0 0 0 0 0 127 0" result="hardAlpha"/>
<feOffset/>
<feGaussianBlur stdDeviation="2.5"/>
<feComposite in2="hardAlpha" operator="out"/>
<feColorMatrix type="matrix" values="0 0 0 0 0 0 0 0 0 0 0 0 0 0 0 0 0 0 0.08 0"/>
<feBlend mode="normal" in2="effect1_dropShadow_823_642" result="effect2_dropShadow_823_642"/>
<feBlend mode="normal" in="SourceGraphic" in2="effect2_dropShadow_823_642" result="shape"/>
</filter>
<linearGradient id="paint0_linear_823_642" x1="54.9797" y1="25.0063" x2="58.0486" y2="35.1261" gradientUnits="userSpaceOnUse">
<stop stop-color="#E2F1DE"/>
<stop offset="1" stop-color="#B8DDA2"/>
</linearGradient>
<linearGradient id="paint1_linear_823_642" x1="61.6886" y1="25.0391" x2="88.2302" y2="81.3122" gradientUnits="userSpaceOnUse">
<stop stop-color="#E2F1DE"/>
<stop offset="1" stop-color="#B8DDA2"/>
</linearGradient>
<linearGradient id="paint2_linear_823_642" x1="61.6883" y1="37.283" x2="79.9926" y2="85.6015" gradientUnits="userSpaceOnUse">
<stop stop-color="#E2F1DE"/>
<stop offset="1" stop-color="#B8DDA2"/>
</linearGradient>
<linearGradient id="paint3_linear_823_642" x1="59.9785" y1="25.0063" x2="61.8377" y2="35.7346" gradientUnits="userSpaceOnUse">
<stop stop-color="#E2F1DE"/>
<stop offset="1" stop-color="#B8DDA2"/>
</linearGradient>
</defs>
</svg>
