<svg width="16" height="16" viewBox="0 0 16 16" fill="none" xmlns="http://www.w3.org/2000/svg">
<g clip-path="url(#clip0_738_110)">
<path d="M5.3335 2.33331C5.3335 1.78103 5.78121 1.33331 6.3335 1.33331H6.66683C7.40321 1.33331 8.00016 1.93027 8.00016 2.66665V3.33331H6.3335C5.78121 3.33331 5.3335 2.8856 5.3335 2.33331Z" fill="url(#paint0_linear_738_110)"/>
<path d="M14.8621 12.1447C14.8621 15.6934 11.7935 16 8.00823 16C4.22292 16 1.15433 15.6934 1.15433 12.1447C1.15433 8.59595 0.736896 3.14893 8.00823 3.14893C15.2796 3.14892 14.8621 8.59595 14.8621 12.1447Z" fill="url(#paint1_linear_738_110)"/>
<path d="M8.0083 3.36279C9.80011 3.3628 11.0976 3.69859 12.0396 4.24072C12.9786 4.78128 13.58 5.53605 13.9663 6.40283C14.7477 8.15616 14.6479 10.3484 14.6479 12.145C14.6479 13.001 14.4626 13.6417 14.144 14.1265C13.8258 14.6107 13.3623 14.9579 12.772 15.2056C11.5775 15.7066 9.90718 15.7856 8.0083 15.7856C6.1094 15.7856 4.43907 15.7066 3.24463 15.2056C2.65414 14.9579 2.18987 14.6108 1.87158 14.1265C1.55311 13.6417 1.3687 13.0008 1.36865 12.145C1.36865 10.3484 1.26892 8.15616 2.05029 6.40283C2.43664 5.53607 3.03806 4.78127 3.97705 4.24072C4.91902 3.69861 6.21652 3.36279 8.0083 3.36279Z" stroke="#171717" stroke-opacity="0.02" stroke-width="0.428369"/>
<path d="M8.54299 2.91328C8.38664 2.76173 8.14049 2.75714 7.97529 2.89899C7.78292 3.06416 7.77666 3.359 7.95695 3.53727C8.38366 3.95921 8.6825 4.30318 9.01656 4.7657C9.1656 4.97205 9.45927 5.01245 9.65239 4.84664C9.81628 4.70592 9.84946 4.46409 9.72477 4.28771C9.34473 3.7501 9.02542 3.38085 8.54299 2.91328Z" fill="#171717" fill-opacity="0.1"/>
<path d="M6.72035 2.77643C6.89104 2.6509 7.12784 2.67508 7.27505 2.82746C7.45565 3.01439 7.43075 3.31635 7.22785 3.47879C6.81682 3.80786 6.52153 4.08937 6.20023 4.46489C6.03007 4.66376 5.72499 4.68077 5.54313 4.49253C5.3978 4.3421 5.38028 4.10799 5.50878 3.94296C5.87336 3.47474 6.1997 3.15932 6.72035 2.77643Z" fill="#171717" fill-opacity="0.1"/>
<path d="M5.85547 2.57819C5.85547 2.33854 6.05235 2.14559 6.29197 2.14974C7.22359 2.1659 7.8953 2.17227 8.84222 2.15247C9.08325 2.14743 9.28242 2.34084 9.28242 2.58192V2.98787C9.28242 3.2249 9.08963 3.41678 8.8526 3.41723C7.90901 3.41903 7.23606 3.43372 6.2768 3.42333C6.04312 3.42079 5.85547 3.23005 5.85547 2.99636V2.57819Z" fill="#6BB170"/>
<mask id="path-7-inside-1_738_110" fill="white">
<path d="M6.28418 0C6.72626 9.89936e-05 7.12826 0.168444 7.43189 0.443647C7.50834 0.512948 7.62835 0.512926 7.70481 0.443624C8.0086 0.16826 8.4112 8.77238e-05 8.85352 0H9.28223C9.99197 0 10.5674 0.575411 10.5674 1.28516C10.5674 1.99488 9.99196 2.57031 9.28223 2.57031H5.85547C5.14574 2.57031 4.57034 1.99488 4.57031 1.28516C4.57031 0.575411 5.14572 0 5.85547 0H6.28418Z"/>
</mask>
<path d="M6.28418 0C6.72626 9.89936e-05 7.12826 0.168444 7.43189 0.443647C7.50834 0.512948 7.62835 0.512926 7.70481 0.443624C8.0086 0.16826 8.4112 8.77238e-05 8.85352 0H9.28223C9.99197 0 10.5674 0.575411 10.5674 1.28516C10.5674 1.99488 9.99196 2.57031 9.28223 2.57031H5.85547C5.14574 2.57031 4.57034 1.99488 4.57031 1.28516C4.57031 0.575411 5.14572 0 5.85547 0H6.28418Z" fill="url(#paint2_linear_738_110)"/>
<path d="M6.28418 0L6.28428 -0.428369H6.28418V0ZM8.85352 0V-0.428369H8.85343L8.85352 0ZM10.5674 1.28516L10.9958 1.28517V1.28516H10.5674ZM4.57031 1.28516H4.14194V1.28517L4.57031 1.28516ZM7.43189 0.443647L7.1442 0.761039L7.43189 0.443647ZM7.70481 0.443624L7.9925 0.761012L7.70481 0.443624ZM6.28418 0L6.28408 0.428369C6.61511 0.428443 6.91577 0.553984 7.1442 0.761039L7.43189 0.443647L7.71957 0.126256C7.34076 -0.217096 6.83741 -0.428245 6.28428 -0.428369L6.28418 0ZM7.70481 0.443624L7.9925 0.761012C8.22089 0.553991 8.52207 0.428435 8.8536 0.428369L8.85352 0L8.85343 -0.428369C8.30033 -0.428259 7.79631 -0.217471 7.41712 0.126236L7.70481 0.443624ZM8.85352 0V0.428369H9.28223V0V-0.428369H8.85352V0ZM9.28223 0V0.428369C9.75539 0.428369 10.139 0.811993 10.139 1.28516H10.5674H10.9958C10.9958 0.33883 10.2286 -0.428369 9.28223 -0.428369V0ZM10.5674 1.28516L10.139 1.28514C10.139 1.75831 9.75536 2.14194 9.28223 2.14194V2.57031V2.99868C10.2286 2.99868 10.9957 2.23145 10.9958 1.28517L10.5674 1.28516ZM9.28223 2.57031V2.14194H5.85547V2.57031V2.99868H9.28223V2.57031ZM5.85547 2.57031V2.14194C5.38234 2.14194 4.9987 1.75831 4.99868 1.28514L4.57031 1.28516L4.14194 1.28517C4.14198 2.23145 4.90914 2.99868 5.85547 2.99868V2.57031ZM4.57031 1.28516H4.99868C4.99868 0.811993 5.38231 0.428369 5.85547 0.428369V0V-0.428369C4.90914 -0.428369 4.14194 0.33883 4.14194 1.28516H4.57031ZM5.85547 0V0.428369H6.28418V0V-0.428369H5.85547V0ZM7.43189 0.443647L7.1442 0.761039C7.38397 0.978367 7.75285 0.97823 7.9925 0.761012L7.70481 0.443624L7.41712 0.126236C7.50385 0.0476212 7.63271 0.0475286 7.71957 0.126256L7.43189 0.443647Z" fill="black" fill-opacity="0.03" mask="url(#path-7-inside-1_738_110)"/>
<rect x="4.57031" y="10.2809" width="6.8539" height="1.71348" rx="0.856738" fill="#6CB170"/>
</g>
<defs>
<linearGradient id="paint0_linear_738_110" x1="6.66683" y1="1.33457" x2="7.28061" y2="3.35854" gradientUnits="userSpaceOnUse">
<stop stop-color="#E2F1DE"/>
<stop offset="1" stop-color="#B8DDA2"/>
</linearGradient>
<linearGradient id="paint1_linear_738_110" x1="8.00823" y1="3.15701" x2="12.7128" y2="15.5759" gradientUnits="userSpaceOnUse">
<stop stop-color="#E2F1DE"/>
<stop offset="1" stop-color="#B8DDA2"/>
</linearGradient>
<linearGradient id="paint2_linear_738_110" x1="7.56885" y1="0.00161617" x2="8.04672" y2="2.75913" gradientUnits="userSpaceOnUse">
<stop stop-color="#E2F1DE"/>
<stop offset="1" stop-color="#B8DDA2"/>
</linearGradient>
<clipPath id="clip0_738_110">
<rect width="16" height="16" fill="white"/>
</clipPath>
</defs>
</svg>
